<svg xmlns="http://www.w3.org/2000/svg" width="172.139" height="52.635" viewBox="0 0 172.139 52.635">
  <g id="Group_20" data-name="Group 20" transform="translate(3492 1443)">
    <g id="New_Logo_LUX_COZI" data-name="New Logo_LUX COZI" transform="translate(-3492 -1443)">
      <g id="Group_14" data-name="Group 14" transform="translate(67.36)">
        <path id="Path_6" data-name="Path 6" d="M2160.266,13.168l-.338-.291-1.529,1.711h-8.607l6.03-7.173L2149.345.886l8.708,0,2.21,2.141L2162.47.884l8.712,0-6.474,6.53,6.04,7.175-8.62,0-1.861-2.09-.338.378.338.291-.338.29,1.793,2.012,10.93,0-6.74-8.007L2173.306,0,2162.1,0l-1.838,1.784L2158.42,0l-11.2,0,7.4,7.458-6.73,8h10.916l1.8-2.01-.337-.29-.338.29Z" transform="translate(-2105.479)" fill="#fff"/>
        <path id="Path_7" data-name="Path 7" d="M2180.114,21.4l-1.664,1.86h-9.762l6.38-7.589-6.939-6.994,9.953,0,2.027,1.962,2.022-1.963,9.958,0-6.933,7,6.389,7.59-9.776,0Z" transform="translate(-2125.327 -8.229)" fill="#ed2224" fill-rule="evenodd"/>
        <path id="Path_8" data-name="Path 8" d="M1716.638,9.5v.44l3.11-.006V9.49l-.088.433.016,0,.48.093.057-.508,0-.023,0-8.491,7.721,0,.006,11.834-.023.175v0l-.027.2-.051.183-.065.174-.084.161-.1.158-.112.13-.135.138-.142.124-.153.106-.153.087-.178.079-.176.065-.191.045-.214.032-.176.014-15.543,0-.19-.012-.191-.027-.184-.048-.191-.067-.177-.078-.16-.088-.146-.1-.144-.126-.134-.135-.112-.135-.094-.155-.091-.167-.061-.16-.049-.192-.033-.191-.007-.164L1708.448,1l7.719,0v8.48l0,.039.022.366.375.047.055-.437-.091.431.015,0,.045.009h.047V9.5l.091-.431-.014,0-.018,0-.021,0-.055.437.447-.024V9.454l0-9.337-9.514.005.01,12.747.009.21v.032l.047.266,0,.012.063.247,0,.027.094.239.009.024.122.224.005.01.122.2.017.028.166.2.014.016.172.174.012.012.186.161.015.013.2.142.02.015.228.124.018.011.23.1.014.007.242.085.017.006.242.064.027.007.26.038.018,0,.242.015.013,0,15.607,0,.226-.017h.016l.264-.041.019,0,.254-.059.028-.008.243-.089.012-.005.228-.1.019-.009.215-.121.017-.012.2-.142.017-.013.193-.165.014-.012.171-.178.011-.01.151-.178.02-.023.143-.228.009-.015.112-.215.013-.024.091-.241,0-.017.072-.252.007-.031.032-.258-.446-.054.445.062.029-.206,0-.029L1728.831.11l-9.513.007V9.445l.446.049.087-.432-.017,0-.044-.009-3.153.006V9.5l.091-.431Z" transform="translate(-1688.149 -0.104)" fill="#fff"/>
        <path id="Path_9" data-name="Path 9" d="M1725.039,17.726l3.11-.007.015,0,0-.032V8.786l8.616-.006.007,12.3-.031.207-.027.226-.064.234-.082.216-.1.2-.126.2-.141.165-.158.164-.174.15-.188.131-.191.11-.214.094-.216.079-.237.054-.246.038-.21.016-15.576,0-.223-.013-.233-.034-.227-.059-.225-.079-.209-.092-.2-.112-.182-.132-.173-.149-.159-.161-.145-.175-.116-.193-.109-.2-.082-.21-.059-.233-.042-.235-.007-.2-.009-12.3,8.618-.007,0,8.911v.025h0Z" transform="translate(-1696.549 -8.334)" fill="#ed2224" fill-rule="evenodd"/>
        <path id="Path_10" data-name="Path 10" d="M1326.17.831v.441l7.807,0,0,8h8.492l-.008,5.7-15.833.009,0-14.145h-.449v0h-.45l.006,15.026,17.625-.011.012-7.46h-8.495l.007-8-9.154,0v.44Z" transform="translate(-1325.72 -0.37)" fill="#fff"/>
        <path id="Path_11" data-name="Path 11" d="M1334.57,9.051h8.256l-.007,8h8.5l-.011,6.581-16.729.01Z" transform="translate(-1334.12 -8.59)" fill="#ed2224" fill-rule="evenodd"/>
        <path id="Path_12" data-name="Path 12" d="M2200.219,28.314l-.379-.327-1.955,2.18-5.983.006,5.239-6.228-5.438-5.477,5.871,0,2.633,2.548,2.642-2.551h5.867l-5.437,5.481,5.238,6.226-5.959,0-2.337-2.605-.379.421.379.327-.379.328,2.261,2.519,8.555,0L2204.632,24l6.476-6.527h-8.672l-2.229,2.152-2.22-2.148-8.677,0L2195.786,24l-6.026,7.166,8.581-.008,2.256-2.515-.378-.328-.379.328Z" transform="translate(-2145.431 -16.582)" fill="#fff"/>
        <path id="Path_13" data-name="Path 13" d="M2222.544,37.588l-2.108,2.348-7.281.007,5.633-6.7-5.958-6,7.275,0,2.426,2.348,2.437-2.351h7.27l-5.959,6,5.632,6.695-7.257,0Z" transform="translate(-2167.756 -25.856)" fill="#ed2224" fill-rule="evenodd"/>
        <path id="Path_14" data-name="Path 14" d="M1737.9,18.11v.5l6.171,0,.008,10.839a.812.812,0,0,1-.277.6,1.007,1.007,0,0,1-.682.266l-15.526.009a.923.923,0,0,1-.953-.869l-.5.007h.5V18.609h5.668l.006,7.5h.5l-.493-.108a.552.552,0,0,0-.011.109,1.458,1.458,0,0,0,1.467,1.438l3.151,0a1.452,1.452,0,0,0,1.463-1.426v-.008h-.234l.234,0v0h-.234l.234,0v0l.005-8h-.5v0h-.5l-.006,7.993h.5l-.5-.008v.019a.43.43,0,0,1-.134.3.462.462,0,0,1-.321.131l-3.147,0a.46.46,0,0,1-.463-.449h-.5l.489.106a.464.464,0,0,0,.012-.106h-.5l.489.106.012-.053-.007-8.538-7.684,0v11.84a1.925,1.925,0,0,0,1.959,1.846l15.529-.01a2.036,2.036,0,0,0,1.374-.535,1.807,1.807,0,0,0,.592-1.319l-.01-11.831-7.682.005v.5h.5Z" transform="translate(-1705.31 -16.715)" fill="#fff"/>
        <path id="Path_15" data-name="Path 15" d="M1747.312,27.384l6.675,0L1754,38.714a1.427,1.427,0,0,1-1.462,1.359l-15.527.01a1.424,1.424,0,0,1-1.457-1.358V27.387h6.678l.006,7.989a.958.958,0,0,0,.966.945l3.147,0a.951.951,0,0,0,.959-.942l.006-7.993Z" transform="translate(-1714.726 -25.989)" fill="#ed2224" fill-rule="evenodd"/>
        <path id="Path_16" data-name="Path 16" d="M1344.136,18.212v.495l5.809-.005v8l8.487,0,0,3.714H1344.65l-.01-12.2h-.5v0h-.5l.011,13.19h15.8l0-5.7-8.486,0,0-8-7.324.007v.495Z" transform="translate(-1342.72 -16.81)" fill="#fff"/>
        <path id="Path_17" data-name="Path 17" d="M1353.59,27.486l6.313-.006v8l8.486,0,0,4.7H1353.6Z" transform="translate(-1352.174 -26.084)" fill="#ed2224" fill-rule="evenodd"/>
      </g>
      <g id="Group_16" data-name="Group 16" transform="translate(38.498 22.06)">
        <path id="Path_18" data-name="Path 18" d="M1489.922,434.54h-13.617A10.351,10.351,0,0,0,1465.95,444.9v9.635a10.352,10.352,0,0,0,10.355,10.355h13.617a10.352,10.352,0,0,0,10.36-10.355V444.9a10.353,10.353,0,0,0-10.36-10.355Zm.314,17.767a3.389,3.389,0,0,1-3.39,3.39H1479.4a3.392,3.392,0,0,1-3.39-3.39v-5.244a3.392,3.392,0,0,1,3.39-3.39h7.448a3.389,3.389,0,0,1,3.39,3.39Z" transform="translate(-1429.962 -434.521)" fill="#211d70"/>
        <path id="Path_19" data-name="Path 19" d="M2241.738,441.779c.131-.157,3.163-3.889,1.076-7.054l-.223-.335H2211.6l3.35,9.156h13.279l-13.866,14.812a6.02,6.02,0,0,0-.911,5.873l.166.52h28.946v-9.189h-12.822l12-13.783Z" transform="translate(-2137.725 -434.379)" fill="#211d70"/>
        <path id="Path_20" data-name="Path 20" d="M785.8,455.346l2.89,9.189-21.482-.018c-8.1-1.519-9.467-8.1-9.522-8.374l-.018-.148.018-13.432c.055-.278,1.426-6.855,9.522-8.374l.148-.018h21.334l-2.89,9.152H770.6a3.393,3.393,0,0,0-3.393,3.393v5.237a3.393,3.393,0,0,0,3.393,3.393h15.2Z" transform="translate(-757.67 -434.17)" fill="#211d70"/>
        <g id="Group_15" data-name="Group 15" transform="translate(112.433 0.019)">
          <rect id="Rectangle_6" data-name="Rectangle 6" width="10.486" height="27.626" transform="translate(1.317 1.36)" fill="#211d70"/>
          <path id="Path_21" data-name="Path 21" d="M2970.47,434.54v30.345h13.12V434.54Zm12.4,29.657h-11.676V435.228h11.676V464.2Z" transform="translate(-2970.47 -434.54)" fill="#211d70"/>
        </g>
      </g>
      <path id="Path_22" data-name="Path 22" d="M3275.679,429.047a2.9,2.9,0,0,1-.389,1.51,3.237,3.237,0,0,1-1.091,1.1,2.931,2.931,0,0,1-1.513.4,2.808,2.808,0,0,1-1.494-.4,2.889,2.889,0,0,1-1.091-1.083,2.956,2.956,0,0,1-.427-1.524,3.042,3.042,0,0,1,.4-1.5,2.737,2.737,0,0,1,1.113-1.1,3.078,3.078,0,0,1,1.494-.412,2.943,2.943,0,0,1,1.491.412,2.83,2.83,0,0,1,1.113,1.1,3.02,3.02,0,0,1,.389,1.5m-.573,0a2.286,2.286,0,0,0-.706-1.721,2.335,2.335,0,0,0-1.713-.7,2.388,2.388,0,0,0-1.724.7,2.347,2.347,0,0,0-.7,1.721,2.267,2.267,0,0,0,.721,1.732,2.3,2.3,0,0,0,1.7.706,2.374,2.374,0,0,0,1.713-.706,2.344,2.344,0,0,0,.706-1.732m-3.8-1.615v3.211l.812-.008V429.39l.094-.015a.44.44,0,0,1,.324.17,10.575,10.575,0,0,1,.608,1.1h.954c-.332-.6-.505-.913-.505-.913-.113-.14-.2-.234-.284-.332-.049-.034-.155-.079-.272-.155a1.127,1.127,0,0,0,.657-.351.713.713,0,0,0,.2-.555.905.905,0,0,0-.26-.656,1.524,1.524,0,0,0-.853-.249h-1.476Zm.812,1.385h.347a1.072,1.072,0,0,0,.5-.11.33.33,0,0,0,.131-.3.4.4,0,0,0-.131-.283.7.7,0,0,0-.472-.109h-.377Z" transform="translate(-3103.541 -404.393)" fill="#211d70" fill-rule="evenodd"/>
      <g id="Group_17" data-name="Group 17" transform="translate(0 21.448)">
        <path id="Path_23" data-name="Path 23" d="M23.472,516.462a24.888,24.888,0,0,1-3.329,10.2l-1.735-1.109a21.612,21.612,0,0,0,2.61-7.36,27.712,27.712,0,0,0-12.251.7A18.975,18.975,0,0,0,4,520.743c1.375,12.329,11.626,19.111,11.751,19.173l-1.031,2.016a32.5,32.5,0,0,1-13.407-21.6l-.094-.609.484-.359a28.4,28.4,0,0,1,14.282-3.829v-.016a23.529,23.529,0,0,1,7.485.938Z" transform="translate(-1.158 -510.746)" fill="#ee2138"/>
        <path id="Path_24" data-name="Path 24" d="M133.366,509.42l-2.046.015a32.829,32.829,0,0,1-10.8,22.175,24.921,24.921,0,0,1-10.408-14.063,27.353,27.353,0,0,1,8.064-1.464l.157-2.05a28.685,28.685,0,0,0-10.706,2.093l.36,1.857a27.084,27.084,0,0,0,13.253,16.273s7.919-6.532,10.7-16.358l0,0a30.728,30.728,0,0,0,1.428-8.48Z" transform="translate(-102.161 -504.985)" fill="#ee2138"/>
        <path id="Path_25" data-name="Path 25" d="M25.026,434.56h0a25.369,25.369,0,0,0,1.633-9.857l-.812-.266A30.029,30.029,0,0,0,0,425.812l1.062,1.75c.109-.062,10.876-6.391,23.377-1.469a26.607,26.607,0,0,1-5.469,15.548l-.5.672-.094.109-.047.078a5.547,5.547,0,0,1-1.3-1.062,18.412,18.412,0,0,1-3.469-5.079.154.154,0,0,0-.016-.047l-.016-.016-.016-.016-1.844.922a17.9,17.9,0,0,0,6.094,7.547l.937.563s2.473-1.895,5.2-8.015c.437-.941.808-1.856,1.12-2.735l0,0Z" transform="translate(0 -422.128)" fill="#211d70"/>
      </g>
    </g>
  </g>
</svg>
