<?xml version="1.0" encoding="UTF-8" standalone="no"?>
<!DOCTYPE svg PUBLIC "-//W3C//DTD SVG 1.1//EN" "http://www.w3.org/Graphics/SVG/1.1/DTD/svg11.dtd">
<svg width="104" height="98" viewBox="0 0 104 98" version="1.1" xmlns="http://www.w3.org/2000/svg" xmlns:xlink="http://www.w3.org/1999/xlink" xml:space="preserve" xmlns:serif="http://www.serif.com/" style="fill-rule:evenodd;clip-rule:evenodd;stroke-linejoin:round;stroke-miterlimit:1.41421;"><path d="M28.704,90.245l-10.46,0l31.531,-54.325l8.48,24.842l-7.457,-13.2l-22.094,42.683Zm66.449,-69.752c-11.347,-16.128 -32.406,-24.443 -52.859,-18.61c-9.333,2.737 -17.526,7.976 -24.105,16.15c-12.014,15.215 -13.554,35.838 -3.117,53.804c-8.301,-19.232 -4.724,-38.091 6.637,-50.863c6.013,-6.754 13.603,-11.33 22.098,-13.479c18.304,-4.448 36.107,3.247 45.56,17.066c9.902,14.271 10.226,33.393 0.055,48.287c-4.044,5.9 -9.607,10.759 -16.019,14.033l-0.772,-2.965c6.444,-3.031 12.018,-7.969 15.837,-14.013c15.165,-23.859 -0.267,-55.246 -26.887,-57.813c12.009,3.255 21.227,11.8 25.367,22.437c4.319,11.262 2.733,23.101 -3.284,32.297c-3.132,4.828 -7.427,8.858 -12.422,11.762l-17.027,-65.375l-44.777,77.034l-9.112,0l0,3.454l38.69,0l0,-3.454l-2.807,0l2.917,-5.59l10.351,0l14.679,13.345l-11.623,-20.161l-10.339,0l8.604,-17.838l18.194,35.466l2.584,-0.998l0.015,0.043c9.423,-3.189 17.785,-9.477 23.573,-17.637c11.747,-16.395 12.211,-39.276 -0.011,-56.382" style="fill:#fff;fill-rule:nonzero;"/></svg>