<?xml version="1.0" encoding="UTF-8" standalone="no"?><!DOCTYPE svg PUBLIC "-//W3C//DTD SVG 1.1//EN" "http://www.w3.org/Graphics/SVG/1.1/DTD/svg11.dtd"><svg width="100%" height="100%" viewBox="0 0 500 500" version="1.1" xmlns="http://www.w3.org/2000/svg" xmlns:xlink="http://www.w3.org/1999/xlink" xml:space="preserve" xmlns:serif="http://www.serif.com/" style="fill-rule:evenodd;clip-rule:evenodd;stroke-linejoin:round;stroke-miterlimit:1.41421;"><g id="Background-Complete" serif:id="Background Complete"><path d="M380.565,408.9c-15.552,-10.865 -19.08,-31.033 -18.465,-49.162c0.103,-3.026 -0.23,-6.217 1.209,-8.872c1.441,-2.654 4.799,-4.469 7.508,-3.194c2.248,1.058 3.227,3.672 4.484,5.833c1.673,2.877 4.164,5.257 7.097,6.78c1.928,1 4.312,1.611 6.214,0.562c2.61,-1.44 2.918,-5.047 2.899,-8.056c-0.036,-5.611 -0.07,-11.22 -0.105,-16.829c-0.019,-3.009 -0.028,-6.083 0.908,-8.939c0.937,-2.856 3.005,-5.51 5.867,-6.312c2.864,-0.802 6.405,0.849 7.009,3.794c0.252,1.227 0.002,2.499 0.086,3.749c0.083,1.249 0.665,2.631 1.852,2.979c1.202,0.354 2.406,-0.5 3.305,-1.381c3.107,-3.039 5.215,-6.954 7.185,-10.847c1.97,-3.893 3.883,-7.878 6.701,-11.193c2.818,-3.314 6.718,-5.941 11.027,-6.185c4.312,-0.245 8.904,2.416 9.993,6.647c1.092,4.243 -1.383,8.549 -4.077,11.983c-3.997,5.096 -8.724,9.603 -13.988,13.333c-0.948,0.674 -1.977,1.402 -2.34,2.517c-0.653,2.006 1.248,3.999 3.229,4.658c2.244,0.747 4.677,0.515 7.024,0.791c2.347,0.277 4.89,1.312 5.777,3.53c1.233,3.076 -1.339,6.3 -3.872,8.412c-5.068,4.229 -10.857,7.57 -17.032,9.833c-2.214,0.809 -4.544,1.52 -6.329,3.076c-1.786,1.555 -2.863,4.261 -1.785,6.38c1.08,2.123 3.848,2.8 6.168,2.37c2.317,-0.429 4.394,-1.689 6.604,-2.523c4.136,-1.56 9.477,-1.276 12.127,2.299c1.741,2.35 1.894,5.621 1.014,8.422c-0.881,2.802 -2.667,5.214 -4.564,7.439c-6.628,7.777 -15.115,14.039 -24.71,17.366c-9.594,3.327 -18.485,4.227 -28.02,0.74" style="fill:#f5f5f5;fill-rule:nonzero;"/><path d="M380.327,422.34c0.657,-7.182 2.232,-15.663 4.918,-24.806c2.668,-9.148 6.425,-18.934 10.705,-29.035c1.079,-2.52 2.147,-5.012 3.197,-7.467c1.055,-2.448 2.101,-4.876 3.271,-7.187c2.32,-4.635 4.904,-8.913 7.483,-12.898c2.579,-3.988 5.172,-7.677 7.62,-11.109c2.458,-3.429 4.809,-6.581 7.075,-9.363c4.514,-5.582 8.68,-9.646 11.654,-12.319c1.485,-1.341 2.671,-2.344 3.483,-3.013c0.392,-0.318 0.698,-0.568 0.93,-0.755c0.211,-0.167 0.322,-0.249 0.328,-0.242c0.007,0.007 -0.093,0.104 -0.292,0.286c-0.223,0.198 -0.518,0.462 -0.893,0.797c-0.79,0.696 -1.952,1.724 -3.413,3.089c-2.923,2.718 -7.033,6.81 -11.495,12.408c-2.239,2.79 -4.566,5.948 -7.004,9.384c-2.431,3.441 -5.005,7.134 -7.567,11.12c-2.561,3.982 -5.125,8.251 -7.425,12.863c-1.16,2.3 -2.194,4.708 -3.251,7.163c-1.05,2.453 -2.114,4.943 -3.192,7.463c-4.278,10.093 -8.038,19.85 -10.727,28.963c-2.703,9.106 -4.311,17.545 -5.015,24.696" style="fill:#e0e0e0;fill-rule:nonzero;"/><path d="M402.576,353.824c-0.037,0.005 -0.14,-0.452 -0.294,-1.284c-0.158,-0.832 -0.347,-2.043 -0.558,-3.541c-0.425,-2.998 -0.872,-7.156 -1.347,-11.743c-0.475,-4.589 -0.979,-8.728 -1.448,-11.711c-0.232,-1.491 -0.43,-2.697 -0.579,-3.529c-0.144,-0.832 -0.206,-1.296 -0.169,-1.305c0.039,-0.009 0.17,0.44 0.379,1.26c0.213,0.821 0.472,2.019 0.752,3.507c0.572,2.976 1.14,7.125 1.615,11.719c0.457,4.526 0.87,8.623 1.185,11.752c0.152,1.413 0.28,2.603 0.384,3.56c0.087,0.839 0.119,1.308 0.08,1.315" style="fill:#e0e0e0;fill-rule:nonzero;"/><path d="M441.272,346.591c0.001,0.038 -0.55,0.103 -1.544,0.185c-0.993,0.088 -2.43,0.209 -4.2,0.414c-3.545,0.382 -8.422,1.083 -13.77,2.09c-5.346,1.018 -10.146,2.144 -13.593,3.06c-1.729,0.445 -3.118,0.843 -4.079,1.112c-0.96,0.274 -1.498,0.408 -1.51,0.371c-0.012,-0.038 0.504,-0.241 1.446,-0.579c0.944,-0.334 2.319,-0.791 4.039,-1.287c3.431,-1.015 8.233,-2.207 13.597,-3.228c5.362,-1.01 10.267,-1.652 13.832,-1.933c1.781,-0.155 3.227,-0.217 4.227,-0.237c1,-0.016 1.553,-0.007 1.555,0.032" style="fill:#e0e0e0;fill-rule:nonzero;"/><path d="M385.72,396.823c-0.018,0.009 -0.108,-0.154 -0.266,-0.472c-0.178,-0.378 -0.396,-0.84 -0.661,-1.399c-0.569,-1.219 -1.346,-3.003 -2.279,-5.22c-1.866,-4.432 -4.253,-10.638 -6.793,-17.519c-2.543,-6.885 -4.867,-13.103 -6.639,-17.569c-0.868,-2.171 -1.583,-3.956 -2.114,-5.283c-0.227,-0.576 -0.414,-1.051 -0.567,-1.441c-0.124,-0.331 -0.181,-0.509 -0.163,-0.518c0.017,-0.007 0.108,0.155 0.265,0.473c0.179,0.379 0.398,0.84 0.661,1.399c0.57,1.218 1.348,3.002 2.28,5.219c1.867,4.433 4.253,10.638 6.794,17.522c2.542,6.883 4.867,13.101 6.638,17.567c0.869,2.17 1.583,3.956 2.114,5.282c0.227,0.576 0.414,1.052 0.567,1.441c0.124,0.332 0.181,0.51 0.163,0.518" style="fill:#e0e0e0;fill-rule:nonzero;"/><path d="M437.141,380.25c0.005,0.019 -0.172,0.091 -0.511,0.211c-0.402,0.135 -0.895,0.3 -1.493,0.5c-1.38,0.447 -3.241,1.051 -5.507,1.784c-4.648,1.509 -11.046,3.664 -18.112,6.057c-7.067,2.393 -13.491,4.492 -18.173,5.904c-2.341,0.707 -4.24,1.26 -5.56,1.614c-0.611,0.16 -1.114,0.292 -1.523,0.401c-0.35,0.085 -0.537,0.121 -0.542,0.101c-0.005,-0.018 0.171,-0.09 0.511,-0.211c0.4,-0.133 0.894,-0.299 1.493,-0.499c1.379,-0.447 3.24,-1.05 5.505,-1.785c4.649,-1.507 11.048,-3.664 18.115,-6.056c7.067,-2.393 13.488,-4.493 18.171,-5.904c2.34,-0.707 4.239,-1.26 5.561,-1.614c0.611,-0.16 1.113,-0.293 1.523,-0.4c0.35,-0.086 0.535,-0.122 0.542,-0.103" style="fill:#e0e0e0;fill-rule:nonzero;"/><path d="M462.397,332.457c-0.023,-0.006 -0.161,-0.211 -0.398,-0.587c-0.274,-0.44 -0.604,-0.974 -0.998,-1.61c-0.845,-1.38 -2.024,-3.32 -3.397,-5.654l0.308,0.082c-2.332,1.359 -5.048,2.941 -7.946,4.628c-0.022,0.078 0.18,-0.672 0.095,-0.353l0.002,0.002l0.002,0.004l0.005,0.009l0.01,0.016l0.02,0.034l0.039,0.069l0.078,0.136l0.158,0.272l0.311,0.54c0.206,0.359 0.411,0.714 0.613,1.066c0.404,0.702 0.798,1.391 1.183,2.062c0.761,1.337 1.48,2.6 2.146,3.769l-0.307,-0.082c2.356,-1.335 4.347,-2.425 5.768,-3.198c0.661,-0.354 1.212,-0.65 1.669,-0.895c0.394,-0.207 0.616,-0.316 0.639,-0.31c0.023,0.007 -0.153,0.128 -0.507,0.353c-0.428,0.265 -0.946,0.586 -1.566,0.971c-1.366,0.838 -3.358,2.046 -5.779,3.469l-0.192,0.113l-0.115,-0.195c-0.68,-1.161 -1.414,-2.417 -2.192,-3.744c-0.388,-0.668 -0.787,-1.355 -1.194,-2.055c-0.203,-0.351 -0.409,-0.706 -0.616,-1.064l-0.313,-0.539l-0.156,-0.273l-0.079,-0.136l-0.039,-0.068l-0.021,-0.034l-0.009,-0.018l-0.005,-0.008l-0.002,-0.004l-0.002,-0.002c-0.085,0.317 0.115,-0.435 0.096,-0.358c2.91,-1.665 5.638,-3.226 7.98,-4.566l0.197,-0.113l0.111,0.195c1.384,2.442 2.506,4.484 3.27,5.892c0.344,0.644 0.632,1.181 0.87,1.626c0.194,0.371 0.286,0.565 0.263,0.558" style="fill:#e0e0e0;fill-rule:nonzero;"/><path d="M151.182,64.554l9.671,-0.052l0.259,48.124l-9.672,0.052l-0.258,-48.124Z" style="fill:#e0e0e0;"/><path d="M67.397,64.762l25.045,-0.134l0.142,26.568l-25.045,0.134l-0.142,-26.568Z" style="fill:#ebebeb;"/><path d="M92.323,64.628l25.045,-0.134l0.143,26.568l-25.046,0.134l-0.142,-26.568Z" style="fill:#f5f5f5;"/><path d="M67.436,72.099c16.644,0.138 33.33,0.041 49.972,-0.229c0.342,-0.006 0.34,-0.531 -0.003,-0.533c-16.644,-0.092 -33.33,-0.01 -49.971,0.306c-0.294,0.005 -0.292,0.454 0.002,0.456" style="fill:#e0e0e0;fill-rule:nonzero;"/><path d="M51.781,90.996l45.503,-0.244l0.116,21.651l-45.503,0.244l-0.116,-21.651Z" style="fill:#ebebeb;"/><path d="M97.069,90.754l45.503,-0.245l0.116,21.651l-45.503,0.245l-0.116,-21.651Z" style="fill:#f5f5f5;"/><path d="M51.814,97.017c30.229,0.342 60.563,0.036 90.791,-0.448c0.342,-0.006 0.34,-0.531 -0.003,-0.532c-30.231,-0.16 -60.567,-0.142 -90.79,0.524c-0.294,0.006 -0.292,0.453 0.002,0.456" style="fill:#e0e0e0;fill-rule:nonzero;"/><rect x="34.797" y="112.647" width="176.293" height="7.756" style="fill:#e0e0e0;"/><rect x="63.66" y="116.376" width="7.157" height="26.467" style="fill:#e0e0e0;"/><rect x="170.493" y="116.376" width="7.157" height="26.467" style="fill:#e0e0e0;"/><path d="M160.619,46.609l9.673,-0.052l0.356,66.187l-9.673,0.052l-0.356,-66.187Z" style="fill:#ebebeb;"/><path d="M170.373,58.958l15.03,-0.081l0.289,53.638l-15.029,0.081l-0.29,-53.638Z" style="fill:#f5f5f5;"/><path d="M185.302,69.211c0,0.144 -3.364,0.26 -7.513,0.26c-4.151,0 -7.515,-0.116 -7.515,-0.26c0,-0.144 3.364,-0.26 7.515,-0.26c4.149,0 7.513,0.116 7.513,0.26" style="fill:#e0e0e0;fill-rule:nonzero;"/><path d="M185.302,66.958c0,0.144 -3.364,0.26 -7.513,0.26c-4.151,0 -7.515,-0.116 -7.515,-0.26c0,-0.144 3.364,-0.26 7.515,-0.26c4.149,0 7.513,0.116 7.513,0.26" style="fill:#e0e0e0;fill-rule:nonzero;"/><path d="M185.302,104.445c0,0.144 -3.364,0.26 -7.513,0.26c-4.151,0 -7.515,-0.116 -7.515,-0.26c0,-0.144 3.364,-0.261 7.515,-0.261c4.149,0 7.513,0.117 7.513,0.261" style="fill:#e0e0e0;fill-rule:nonzero;"/><path d="M185.302,102.192c0,0.144 -3.364,0.26 -7.513,0.26c-4.151,0 -7.515,-0.116 -7.515,-0.26c0,-0.144 3.364,-0.261 7.515,-0.261c4.149,0 7.513,0.117 7.513,0.261" style="fill:#e0e0e0;fill-rule:nonzero;"/><path d="M178.03,97.275c-0.144,0 -0.26,-5.412 -0.26,-12.085c0,-6.677 0.116,-12.087 0.26,-12.087c0.144,0 0.261,5.41 0.261,12.087c0,6.673 -0.117,12.085 -0.261,12.085" style="fill:#e0e0e0;fill-rule:nonzero;"/><rect x="185.465" y="72.049" width="16.358" height="40.485" style="fill:#ebebeb;"/><path d="M194.106,102.036c-2.152,0 -3.655,-1.531 -3.655,-3.642c0,-1.144 0.441,-2.138 1.324,-2.731l0.372,0.51c-0.731,0.524 -1.076,1.324 -1.076,2.22c0,1.698 1.214,2.939 3.035,2.939c1.821,0 3.035,-1.241 3.035,-2.939c0,-0.896 -0.346,-1.696 -1.077,-2.22l0.373,-0.511c0.869,0.594 1.324,1.587 1.324,2.731c0,2.111 -1.517,3.642 -3.655,3.642" style="fill:#fafafa;fill-rule:nonzero;"/><path d="M196.837,94.657l-0.552,-0.317c0.469,-0.552 0.869,-1.532 0.869,-2.593c0,-1.518 -0.538,-2.124 -1.352,-2.124c-2.096,0 -0.551,4.772 -3.379,4.772c-1.089,0 -1.972,-0.91 -1.972,-2.731c0,-0.91 0.275,-1.903 0.703,-2.469l0.552,0.317c-0.442,0.607 -0.649,1.393 -0.649,2.166c0,1.407 0.58,2.028 1.352,2.028c2.166,0 0.635,-4.774 3.38,-4.774c1.173,0 1.972,1.007 1.972,2.842c0,1.187 -0.4,2.318 -0.924,2.883" style="fill:#fafafa;fill-rule:nonzero;"/><path d="M196.837,88.066l-0.552,-0.317c0.469,-0.552 0.869,-1.532 0.869,-2.594c0,-1.517 -0.538,-2.124 -1.352,-2.124c-2.096,0 -0.551,4.772 -3.379,4.772c-1.089,0 -1.972,-0.91 -1.972,-2.73c0,-0.911 0.275,-1.904 0.703,-2.47l0.552,0.317c-0.442,0.608 -0.649,1.394 -0.649,2.167c0,1.406 0.58,2.027 1.352,2.027c2.166,0 0.635,-4.773 3.38,-4.773c1.173,0 1.972,1.007 1.972,2.842c0,1.186 -0.4,2.318 -0.924,2.883" style="fill:#fafafa;fill-rule:nonzero;"/><path d="M168.093,57.857c0,1.536 -1.245,2.78 -2.78,2.78c-1.535,0 -2.78,-1.244 -2.78,-2.78c0,-1.535 1.245,-2.779 2.78,-2.779c1.535,0 2.78,1.244 2.78,2.779" style="fill:#e0e0e0;fill-rule:nonzero;"/><rect x="164.454" y="65.502" width="1.719" height="39.374" style="fill:#e0e0e0;"/><path d="M383.475,297.233c-0.102,-0.102 3.149,-3.518 7.262,-7.63c4.112,-4.112 7.528,-7.363 7.63,-7.262c0.101,0.102 -3.15,3.518 -7.262,7.63c-4.112,4.113 -7.528,7.364 -7.63,7.262" style="fill:#e0e0e0;fill-rule:nonzero;"/><path d="M398.367,297.233c-0.102,0.102 -3.519,-3.149 -7.63,-7.262c-4.112,-4.112 -7.363,-7.528 -7.262,-7.63c0.102,-0.101 3.518,3.15 7.63,7.262c4.112,4.112 7.364,7.528 7.262,7.63" style="fill:#e0e0e0;fill-rule:nonzero;"/><path d="M247.276,216.467c-0.102,-0.102 3.15,-3.518 7.261,-7.629c4.113,-4.113 7.529,-7.364 7.631,-7.262c0.101,0.101 -3.15,3.517 -7.262,7.63c-4.112,4.112 -7.528,7.363 -7.63,7.261" style="fill:#e0e0e0;fill-rule:nonzero;"/><path d="M262.168,216.467c-0.102,0.102 -3.519,-3.149 -7.63,-7.261c-4.113,-4.113 -7.363,-7.529 -7.262,-7.63c0.102,-0.102 3.518,3.149 7.63,7.262c4.112,4.111 7.364,7.527 7.262,7.629" style="fill:#e0e0e0;fill-rule:nonzero;"/><path d="M226.863,86.137c-0.144,0.012 -0.611,-4.019 -1.045,-9.003c-0.434,-4.987 -0.669,-9.038 -0.526,-9.05c0.143,-0.012 0.611,4.018 1.045,9.004c0.434,4.985 0.669,9.036 0.526,9.049" style="fill:#e0e0e0;fill-rule:nonzero;"/><path d="M235.104,76.325c0.013,0.144 -4.019,0.611 -9.003,1.045c-4.986,0.434 -9.037,0.669 -9.049,0.526c-0.013,-0.143 4.018,-0.611 9.004,-1.045c4.984,-0.434 9.036,-0.669 9.048,-0.526" style="fill:#e0e0e0;fill-rule:nonzero;"/><path d="M143.368,185.039c-0.011,-0.003 -0.076,-0.099 -0.191,-0.281c-0.134,-0.217 -0.295,-0.48 -0.492,-0.799c-0.446,-0.744 -1.049,-1.75 -1.803,-3.004c-1.543,-2.618 -3.696,-6.268 -6.267,-10.627l0.307,0.082c-4.316,2.504 -9.39,5.447 -14.805,8.588c-0.023,0.078 0.18,-0.671 0.095,-0.352l0.003,0.004l0.004,0.008l0.009,0.016l0.019,0.032l0.037,0.063l0.219,0.381l0.292,0.506l0.58,1.006c0.385,0.667 0.766,1.328 1.143,1.982c0.753,1.309 1.489,2.589 2.206,3.835c1.428,2.491 2.776,4.844 4.015,7.006l-0.308,-0.082c4.408,-2.49 8.097,-4.575 10.743,-6.07c1.279,-0.71 2.304,-1.279 3.063,-1.7c0.33,-0.178 0.601,-0.325 0.825,-0.447c0.19,-0.1 0.295,-0.15 0.306,-0.147c0.023,0.006 -0.325,0.227 -1,0.637c-0.732,0.44 -1.723,1.034 -2.959,1.777c-2.648,1.561 -6.341,3.738 -10.752,6.34l-0.194,0.114l-0.114,-0.197c-1.253,-2.154 -2.616,-4.498 -4.06,-6.98c-0.72,-1.243 -1.461,-2.522 -2.218,-3.828c-0.378,-0.654 -0.76,-1.314 -1.146,-1.981l-0.58,-1.005l-0.293,-0.506l-0.146,-0.253l-0.074,-0.127l-0.036,-0.064l-0.019,-0.032l-0.009,-0.016l-0.004,-0.008l-0.003,-0.004c-0.085,0.317 0.114,-0.435 0.095,-0.359c5.428,-3.118 10.515,-6.041 14.841,-8.527l0.197,-0.113l0.111,0.195c2.519,4.458 4.628,8.19 6.14,10.866c0.701,1.262 1.261,2.273 1.676,3.02c0.379,0.693 0.57,1.057 0.547,1.051" style="fill:#e0e0e0;fill-rule:nonzero;"/><path d="M470.905,281.326c-0.047,0.014 -0.138,-0.334 -0.459,-0.87c-0.316,-0.526 -0.932,-1.248 -1.957,-1.652c-0.996,-0.416 -2.443,-0.409 -3.62,0.424c-1.177,0.791 -1.931,2.459 -1.497,4.063c0.404,1.611 1.878,2.699 3.291,2.813c1.433,0.153 2.7,-0.548 3.367,-1.396c0.696,-0.855 0.88,-1.785 0.899,-2.399c0.019,-0.624 -0.071,-0.972 -0.024,-0.983c0.021,-0.008 0.183,0.324 0.228,0.981c0.043,0.643 -0.09,1.66 -0.813,2.627c-0.691,0.96 -2.081,1.791 -3.702,1.648c-1.595,-0.099 -3.29,-1.323 -3.75,-3.159c-0.495,-1.827 0.386,-3.724 1.728,-4.588c1.345,-0.917 2.963,-0.871 4.036,-0.371c1.103,0.49 1.715,1.313 1.992,1.894c0.281,0.596 0.303,0.965 0.281,0.968" style="fill:#e0e0e0;fill-rule:nonzero;"/><path d="M283.978,43.316c-0.046,0.014 -0.137,-0.334 -0.458,-0.87c-0.316,-0.526 -0.933,-1.248 -1.957,-1.653c-0.997,-0.415 -2.443,-0.406 -3.62,0.426c-1.177,0.791 -1.931,2.459 -1.497,4.062c0.404,1.611 1.878,2.699 3.29,2.813c1.434,0.152 2.7,-0.548 3.367,-1.397c0.696,-0.854 0.881,-1.785 0.9,-2.398c0.019,-0.624 -0.072,-0.973 -0.025,-0.983c0.021,-0.008 0.183,0.324 0.228,0.981c0.043,0.643 -0.089,1.66 -0.813,2.627c-0.69,0.96 -2.08,1.791 -3.701,1.648c-1.596,-0.098 -3.29,-1.323 -3.75,-3.16c-0.495,-1.826 0.385,-3.722 1.728,-4.588c1.345,-0.916 2.962,-0.87 4.035,-0.371c1.103,0.491 1.715,1.314 1.993,1.896c0.281,0.595 0.302,0.964 0.28,0.967" style="fill:#e0e0e0;fill-rule:nonzero;"/><path d="M98.022,157.767c-0.046,0.014 -0.137,-0.334 -0.458,-0.87c-0.317,-0.526 -0.933,-1.248 -1.958,-1.653c-0.996,-0.415 -2.443,-0.407 -3.62,0.426c-1.176,0.79 -1.93,2.459 -1.497,4.062c0.405,1.611 1.878,2.699 3.291,2.813c1.434,0.152 2.7,-0.548 3.367,-1.397c0.696,-0.854 0.88,-1.785 0.9,-2.398c0.018,-0.625 -0.072,-0.973 -0.025,-0.983c0.021,-0.008 0.183,0.324 0.228,0.981c0.043,0.643 -0.09,1.66 -0.813,2.627c-0.691,0.96 -2.081,1.791 -3.702,1.648c-1.595,-0.098 -3.29,-1.323 -3.75,-3.16c-0.495,-1.826 0.386,-3.722 1.729,-4.588c1.345,-0.916 2.962,-0.87 4.035,-0.371c1.103,0.491 1.715,1.314 1.992,1.896c0.281,0.595 0.303,0.964 0.281,0.967" style="fill:#e0e0e0;fill-rule:nonzero;"/><path d="M453.715,141.781c-0.06,0.02 -0.215,-0.732 -0.876,-1.906c-0.651,-1.15 -1.959,-2.743 -4.184,-3.654c-1.099,-0.441 -2.409,-0.716 -3.8,-0.598c-1.382,0.125 -2.861,0.561 -4.136,1.474c-0.649,0.436 -1.237,0.992 -1.745,1.631c-0.518,0.632 -0.947,1.36 -1.25,2.153c-0.644,1.574 -0.759,3.408 -0.321,5.154c0.471,1.739 1.467,3.284 2.798,4.343c0.654,0.544 1.382,0.97 2.144,1.268c0.755,0.31 1.541,0.507 2.318,0.571c1.56,0.174 3.064,-0.169 4.329,-0.735c1.274,-0.577 2.281,-1.456 3.026,-2.379c1.495,-1.881 1.858,-3.91 1.864,-5.232c0.005,-1.346 -0.228,-2.078 -0.166,-2.09c0.017,-0.004 0.072,0.175 0.161,0.524c0.098,0.347 0.187,0.877 0.208,1.564c0.056,1.351 -0.255,3.467 -1.778,5.461c-0.757,0.978 -1.8,1.918 -3.13,2.543c-1.324,0.614 -2.906,0.991 -4.558,0.822c-0.824,-0.061 -1.658,-0.264 -2.461,-0.587c-0.806,-0.312 -1.584,-0.76 -2.277,-1.334c-1.418,-1.118 -2.483,-2.761 -2.981,-4.607c-0.466,-1.854 -0.339,-3.808 0.351,-5.475c0.325,-0.84 0.784,-1.609 1.335,-2.276c0.543,-0.674 1.171,-1.258 1.861,-1.714c1.358,-0.954 2.923,-1.398 4.377,-1.509c1.466,-0.105 2.834,0.206 3.974,0.689c2.304,0.996 3.608,2.69 4.22,3.896c0.317,0.609 0.498,1.116 0.582,1.466c0.094,0.349 0.132,0.533 0.115,0.537" style="fill:#e0e0e0;fill-rule:nonzero;"/><path d="M426.782,268.374c0,0.028 -0.183,-0.298 -0.524,-0.927c-0.383,-0.709 -0.879,-1.627 -1.484,-2.748c-1.275,-2.368 -3.113,-5.78 -5.193,-9.794l-0.199,-0.385l0.434,0.027c2.301,0.143 4.806,0.301 7.417,0.464c2.71,0.18 5.308,0.353 7.69,0.511l0.417,0.028l-0.228,0.35c-2.422,3.728 -4.537,6.886 -6.01,9.078c-0.699,1.038 -1.271,1.886 -1.714,2.542c-0.395,0.582 -0.606,0.882 -0.606,0.854c0,-0.028 0.212,-0.383 0.598,-1.015c0.424,-0.689 0.974,-1.583 1.646,-2.673c1.402,-2.268 3.35,-5.414 5.675,-9.053l0.189,0.378c-2.381,-0.149 -4.979,-0.311 -7.691,-0.481c-2.609,-0.173 -5.114,-0.34 -7.415,-0.492l0.234,-0.358c1.993,3.908 3.647,7.286 4.844,9.728c0.574,1.173 1.045,2.135 1.408,2.876c0.33,0.68 0.512,1.062 0.512,1.09" style="fill:#e0e0e0;fill-rule:nonzero;"/><path d="M357.049,79.539c0,0.028 -0.183,-0.298 -0.524,-0.927c-0.383,-0.708 -0.879,-1.627 -1.484,-2.747c-1.276,-2.368 -3.113,-5.781 -5.193,-9.795l-0.199,-0.385l0.433,0.027c2.302,0.144 4.807,0.301 7.417,0.464c2.711,0.18 5.309,0.353 7.691,0.511l0.417,0.028l-0.228,0.35c-2.422,3.728 -4.537,6.886 -6.01,9.079c-0.699,1.037 -1.271,1.886 -1.714,2.541c-0.395,0.582 -0.606,0.882 -0.606,0.854c0,-0.028 0.212,-0.383 0.598,-1.015c0.424,-0.69 0.974,-1.582 1.645,-2.672c1.403,-2.269 3.351,-5.415 5.676,-9.054l0.189,0.378c-2.381,-0.149 -4.979,-0.311 -7.691,-0.48c-2.609,-0.174 -5.114,-0.34 -7.415,-0.493l0.234,-0.358c1.993,3.908 3.647,7.286 4.844,9.728c0.574,1.174 1.045,2.135 1.408,2.877c0.33,0.679 0.512,1.061 0.512,1.089" style="fill:#e0e0e0;fill-rule:nonzero;"/><path d="M236.099,302.579c-0.024,0.013 0.175,-0.301 0.566,-0.898c0.439,-0.668 1.011,-1.539 1.711,-2.603c1.477,-2.242 3.608,-5.478 6.162,-9.228l0.202,-0.296l0.201,0.297c1.473,2.179 3.083,4.56 4.768,7.051c1.298,1.936 2.552,3.805 3.715,5.537l0.261,0.391l-0.468,-0.001c-5.026,-0.013 -9.365,-0.087 -12.39,-0.141c-1.442,-0.026 -2.621,-0.047 -3.52,-0.065c-0.809,-0.017 -1.234,-0.03 -1.208,-0.044c0.026,-0.014 0.501,-0.027 1.353,-0.044c0.918,-0.018 2.125,-0.039 3.601,-0.065c3.055,-0.054 7.275,-0.128 12.164,-0.141l-0.208,0.39c-1.168,-1.73 -2.428,-3.595 -3.732,-5.526c-1.675,-2.498 -3.275,-4.885 -4.74,-7.07l0.402,0.002c-2.505,3.622 -4.694,6.683 -6.271,8.893c-0.76,1.063 -1.381,1.931 -1.858,2.598c-0.439,0.611 -0.687,0.95 -0.711,0.963" style="fill:#e0e0e0;fill-rule:nonzero;"/></g><g id="Character"><path d="M392.33,432.616l-125.223,0l0,-72.599c0,-34.579 28.033,-62.611 62.612,-62.611c34.58,0 62.611,28.031 62.611,62.611l0,72.599Z" style="fill:#455a64;fill-rule:nonzero;"/><path d="M171.183,397.402l-6.302,4.453l-7.015,16.817c0,0 1.904,1.274 3.372,-0.08c1.467,-1.352 7.09,-11.135 7.09,-11.135l0.041,5.782c0.017,2.347 1.779,4.313 4.11,4.586l10.382,3.236l12.74,-3.628l1.087,-15.164l-25.505,-4.867Z" style="fill:#ffbe9d;fill-rule:nonzero;"/><path d="M284.367,285.634c-3.116,-0.903 -4.646,-4.474 -4.928,-7.706c-0.281,-3.232 0.252,-6.564 -0.629,-9.687c-0.626,-2.218 -1.948,-4.257 -2.117,-6.557c-0.182,-2.48 1.01,-4.871 1.077,-7.358c0.093,-3.467 -1.995,-6.69 -2.046,-10.159c-0.071,-4.798 0.79,-12.727 5.581,-12.458c4.791,0.268 12.495,8.677 11.888,13.438" style="fill:#263238;fill-rule:nonzero;"/><path d="M329.718,245.893l-0.095,4.794l-0.963,71.761c-0.111,8.331 -7.363,14.869 -16.282,14.681l-0.001,0c-9.008,-0.189 -16.324,-7.162 -16.35,-15.579c-0.027,-8.836 -0.217,-18.136 -0.217,-18.136c0,0 -11.382,-1.89 -13.74,-16.74c-1.173,-7.385 -0.802,-19.493 -0.178,-29.39c0.561,-8.91 8.419,-15.559 17.296,-14.62l30.53,3.229Z" style="fill:#ffbe9d;fill-rule:nonzero;"/><path d="M284.934,265.714c-0.035,1.006 0.787,1.865 1.837,1.922c1.047,0.056 1.927,-0.712 1.963,-1.717c0.035,-1.006 -0.787,-1.866 -1.835,-1.923c-1.049,-0.056 -1.93,0.712 -1.965,1.718" style="fill:#263238;fill-rule:nonzero;"/><path d="M284.518,263.582c0.236,0.248 1.68,-0.819 3.729,-0.814c2.046,-0.024 3.551,1.03 3.773,0.779c0.109,-0.111 -0.131,-0.559 -0.786,-1.036c-0.645,-0.475 -1.744,-0.937 -3.021,-0.931c-1.276,0.007 -2.35,0.477 -2.967,0.958c-0.63,0.483 -0.844,0.933 -0.728,1.044" style="fill:#263238;fill-rule:nonzero;"/><path d="M305.446,265.714c-0.035,1.006 0.787,1.865 1.836,1.922c1.048,0.056 1.928,-0.712 1.964,-1.717c0.035,-1.006 -0.787,-1.866 -1.835,-1.923c-1.05,-0.056 -1.93,0.712 -1.965,1.718" style="fill:#263238;fill-rule:nonzero;"/><path d="M304.663,263.964c0.236,0.249 1.682,-0.818 3.729,-0.813c2.047,-0.024 3.551,1.03 3.774,0.779c0.108,-0.112 -0.13,-0.56 -0.787,-1.036c-0.645,-0.475 -1.744,-0.937 -3.021,-0.932c-1.276,0.008 -2.349,0.478 -2.967,0.958c-0.628,0.484 -0.843,0.934 -0.728,1.044" style="fill:#263238;fill-rule:nonzero;"/><path d="M297.225,279.162c0.01,-0.116 -1.264,-0.336 -3.328,-0.601c-0.524,-0.053 -1.019,-0.157 -1.108,-0.514c-0.123,-0.378 0.097,-0.943 0.35,-1.551c0.492,-1.267 1.007,-2.594 1.548,-3.985c2.149,-5.674 3.705,-10.339 3.475,-10.423c-0.229,-0.085 -2.157,4.445 -4.306,10.119c-0.517,1.398 -1.012,2.732 -1.483,4.009c-0.198,0.593 -0.538,1.268 -0.271,2.053c0.141,0.391 0.525,0.675 0.86,0.765c0.336,0.103 0.63,0.108 0.889,0.124c2.078,0.111 3.366,0.121 3.374,0.004" style="fill:#263238;fill-rule:nonzero;"/><path d="M295.81,303.414c0,0 9.99,0.644 19.887,-5.306c0,0 -4.824,10.202 -19.687,8.812l-0.2,-3.506Z" style="fill:#eb996e;fill-rule:nonzero;"/><path d="M298.092,284.102c0.736,-0.975 2.028,-1.51 3.311,-1.371c0.888,0.095 1.787,0.524 2.327,1.248c0.541,0.725 0.654,1.753 0.163,2.443c-0.553,0.778 -1.709,0.957 -2.687,0.679c-0.978,-0.277 -1.82,-0.922 -2.619,-1.563c-0.222,-0.177 -0.447,-0.363 -0.586,-0.606c-0.138,-0.243 -0.167,-0.561 0.003,-0.763" style="fill:#eb996e;fill-rule:nonzero;"/><path d="M303.256,280.58c-0.333,-0.02 -0.337,2.205 -2.241,3.784c-1.901,1.584 -4.273,1.334 -4.289,1.646c-0.032,0.138 0.527,0.431 1.528,0.459c0.981,0.033 2.416,-0.283 3.581,-1.248c1.161,-0.968 1.66,-2.26 1.736,-3.173c0.085,-0.93 -0.163,-1.481 -0.315,-1.468" style="fill:#263238;fill-rule:nonzero;"/><path d="M304.133,255.933c0.203,0.558 2.249,0.293 4.653,0.583c2.41,0.242 4.349,0.945 4.668,0.446c0.143,-0.239 -0.196,-0.763 -0.979,-1.303c-0.778,-0.538 -2.018,-1.05 -3.461,-1.211c-1.443,-0.158 -2.765,0.071 -3.641,0.427c-0.883,0.356 -1.327,0.794 -1.24,1.058" style="fill:#263238;fill-rule:nonzero;"/><path d="M285.272,257.651c0.36,0.466 1.772,-0.018 3.47,-0.04c1.697,-0.082 3.135,0.312 3.467,-0.174c0.144,-0.236 -0.083,-0.703 -0.71,-1.143c-0.62,-0.44 -1.655,-0.798 -2.822,-0.763c-1.166,0.037 -2.176,0.459 -2.767,0.935c-0.6,0.479 -0.797,0.958 -0.638,1.185" style="fill:#263238;fill-rule:nonzero;"/><path d="M335.191,241.327c3.093,-8.389 15.947,-21.036 25.839,-15.4c10.826,6.167 6.981,10.442 10.906,13.28c0.937,0.677 5.329,-0.784 5.94,0.197c1.611,2.589 0.247,5.933 -1.129,8.655c0.311,-0.036 0.64,-0.136 0.976,-0.261c1.216,-0.454 2.543,0.458 2.468,1.754c-0.188,3.277 -1.422,6.773 -3.347,9.192c0.677,0.159 1.384,0.178 2.07,0.065c0.954,-0.155 1.723,0.774 1.409,1.687c-1.086,3.158 -4.114,5.649 -7.455,6.342c-4.132,0.857 -8.49,-0.643 -11.863,-3.179c-3.373,-2.536 -5.902,-6.019 -8.188,-9.565c-1.327,-2.059 -2.641,-4.212 -4.618,-5.657c-1.978,-1.445 -4.833,-2.004 -6.864,-0.635" style="fill:#263238;fill-rule:nonzero;"/><path d="M341.352,247.477c-0.043,-0.023 0.003,-0.154 -0.018,-0.384c-0.015,-0.233 -0.098,-0.574 -0.253,-0.983c-0.295,-0.821 -0.882,-1.906 -1.608,-3.045c-0.738,-1.134 -1.505,-2.092 -2.11,-2.734c-0.604,-0.645 -1.05,-0.968 -1.008,-1.039c0.027,-0.055 0.565,0.17 1.262,0.772c0.696,0.598 1.535,1.553 2.294,2.718c0.746,1.172 1.299,2.317 1.522,3.22c0.117,0.446 0.152,0.834 0.104,1.103c-0.045,0.27 -0.17,0.392 -0.185,0.372" style="fill:#e8505b;fill-rule:nonzero;"/><path d="M366.46,270.503c0.01,0.015 -0.113,0.106 -0.359,0.268c-0.24,0.176 -0.624,0.378 -1.137,0.608c-1.025,0.447 -2.666,0.835 -4.684,0.618c-1.983,-0.234 -4.404,-1.131 -6.204,-3.179c-0.893,-1.019 -1.547,-2.304 -1.972,-3.695c-0.423,-1.394 -0.629,-2.888 -0.734,-4.408c-0.185,-3.044 -0.069,-5.932 -0.61,-8.475c-0.263,-1.265 -0.673,-2.43 -1.233,-3.425c-0.566,-0.981 -1.298,-1.78 -2.075,-2.36c-1.551,-1.194 -3.188,-1.514 -4.263,-1.438c-1.088,0.091 -1.64,0.413 -1.662,0.355c-0.007,-0.016 0.126,-0.091 0.394,-0.219c0.268,-0.124 0.688,-0.261 1.25,-0.338c1.114,-0.144 2.852,0.134 4.501,1.345c0.827,0.588 1.612,1.408 2.23,2.44c0.602,1.031 1.044,2.24 1.328,3.541c0.581,2.612 0.474,5.543 0.66,8.538c0.103,1.498 0.301,2.953 0.702,4.296c0.402,1.339 1.018,2.565 1.847,3.53c1.679,1.951 3.98,2.856 5.888,3.127c1.941,0.255 3.539,-0.062 4.564,-0.442c1.032,-0.376 1.537,-0.743 1.569,-0.687" style="fill:#263238;fill-rule:nonzero;"/><path d="M376.44,230.133c0.013,-0.007 0.125,0.18 0.291,0.562c0.152,0.385 0.335,0.981 0.383,1.776c0.044,0.79 -0.046,1.786 -0.479,2.84c-0.418,1.046 -1.196,2.174 -2.443,2.925c-1.234,0.752 -2.889,1.064 -4.557,0.733c-1.649,-0.315 -3.369,-1.379 -4.268,-3.086c-0.982,-1.654 -1.325,-3.635 -1.72,-5.594c-0.393,-1.946 -0.775,-4.063 -2.097,-5.646c-0.653,-0.781 -1.54,-1.337 -2.497,-1.585c-0.955,-0.271 -1.967,-0.223 -2.926,-0.051c-1.932,0.374 -3.667,1.272 -5.222,2.231c-3.141,1.92 -5.729,4.02 -7.753,5.932c-2.029,1.91 -3.503,3.627 -4.492,4.832c-0.457,0.577 -0.827,1.044 -1.117,1.41c-0.254,0.323 -0.396,0.489 -0.411,0.478c-0.014,-0.01 0.098,-0.195 0.326,-0.54c0.222,-0.347 0.578,-0.841 1.042,-1.473c0.944,-1.249 2.384,-3.014 4.397,-4.973c2.007,-1.96 4.597,-4.111 7.756,-6.074c1.571,-0.984 3.346,-1.923 5.379,-2.324c1.012,-0.185 2.101,-0.244 3.156,0.052c1.057,0.271 2.04,0.888 2.757,1.745c1.447,1.747 1.809,3.944 2.202,5.889c0.387,1.964 0.722,3.894 1.635,5.451c0.836,1.607 2.388,2.578 3.941,2.904c1.56,0.328 3.117,0.055 4.28,-0.628c1.176,-0.68 1.939,-1.73 2.365,-2.721c0.438,-0.998 0.555,-1.954 0.543,-2.719c-0.045,-1.552 -0.54,-2.326 -0.471,-2.346" style="fill:#263238;fill-rule:nonzero;"/><path d="M338.876,226.596c0.044,-0.036 0.587,0.522 1.095,1.659c0.509,1.12 0.91,2.87 0.585,4.764c-0.326,1.895 -1.289,3.411 -2.142,4.298c-0.857,0.903 -1.557,1.248 -1.586,1.198c-0.052,-0.067 0.559,-0.516 1.309,-1.441c0.749,-0.911 1.599,-2.365 1.906,-4.143c0.304,-1.775 -0.013,-3.43 -0.414,-4.541c-0.399,-1.121 -0.825,-1.746 -0.753,-1.794" style="fill:#263238;fill-rule:nonzero;"/><path d="M340.355,245.062c-2.248,-5.719 -7.453,-10.24 -13.482,-11.432c-3.663,-0.724 -7.549,-0.158 -10.9,1.468c-1.278,-0.72 -2.32,-1.817 -3.377,-2.851c-3.559,-3.481 -7.893,-6.249 -12.7,-7.547c-4.807,-1.297 -10.098,-1.049 -14.575,1.128c-4.478,2.176 -8.031,6.37 -9.005,11.253c-0.975,4.882 0.851,10.327 4.842,13.303c3.99,2.977 10.018,3.07 13.854,-0.104c-0.273,2.187 1.652,4.221 3.817,4.63c2.166,0.408 4.397,-0.485 6.168,-1.797c1.77,-1.312 3.194,-3.026 4.765,-4.572c0.585,-0.575 1.195,-1.126 1.822,-1.655c2.319,5.015 7.048,8.938 12.494,10.005c-1.722,1.87 -1.569,4.794 -0.863,7.236c0.706,2.442 1.866,4.827 1.811,7.368c-0.046,2.133 -0.947,4.147 -1.353,6.242c-0.563,2.914 -0.132,6.012 1.204,8.662c0.517,1.025 1.143,2.458 1.711,3.456c1.012,1.776 1.012,1.776 2.48,2.229c3.058,0.944 8.345,-10.161 9.706,-14.573c1.135,-3.677 1.581,-10.277 2.902,-13.891c2.37,-6.483 0.928,-12.838 -1.321,-18.558" style="fill:#263238;fill-rule:nonzero;"/><path d="M342.419,258.957c0.015,0.01 -0.055,0.123 -0.204,0.332c-0.161,0.196 -0.425,0.48 -0.849,0.73c-0.417,0.254 -0.991,0.483 -1.689,0.556c-0.695,0.079 -1.523,-0.004 -2.331,-0.402c-0.398,-0.206 -0.786,-0.488 -1.113,-0.863c-0.318,-0.374 -0.57,-0.818 -0.786,-1.283c-0.438,-0.924 -0.717,-1.978 -1.36,-2.837c-0.628,-0.869 -1.703,-1.37 -2.878,-1.541c-1.181,-0.188 -2.448,-0.133 -3.76,-0.156c-1.321,-0.034 -2.613,-0.215 -3.82,-0.534c-1.205,-0.332 -2.32,-0.795 -3.34,-1.315c-2.021,-1.083 -3.625,-2.427 -4.752,-3.734c-1.133,-1.304 -1.859,-2.511 -2.259,-3.386c-0.226,-0.424 -0.331,-0.787 -0.427,-1.019c-0.087,-0.237 -0.124,-0.364 -0.108,-0.371c0.117,-0.068 0.765,2.027 3.068,4.529c1.135,1.247 2.723,2.525 4.699,3.554c0.996,0.495 2.083,0.933 3.251,1.25c1.173,0.302 2.414,0.471 3.698,0.506c1.29,0.023 2.58,-0.033 3.832,0.172c1.24,0.183 2.481,0.76 3.181,1.758c0.705,0.978 0.961,2.057 1.369,2.946c0.198,0.448 0.423,0.861 0.701,1.204c0.28,0.337 0.619,0.596 0.973,0.793c1.475,0.764 2.963,0.415 3.751,-0.004c0.835,-0.432 1.104,-0.932 1.153,-0.885" style="fill:#455a64;fill-rule:nonzero;"/><path d="M340.106,265.012c0.021,0.022 -0.178,0.263 -0.622,0.605c-0.443,0.34 -1.151,0.772 -2.123,1.064c-0.963,0.292 -2.211,0.428 -3.532,0.123c-1.313,-0.294 -2.689,-1.012 -3.745,-2.171c-1.049,-1.171 -1.642,-2.52 -2.259,-3.652c-0.596,-1.151 -1.258,-2.091 -1.981,-2.731c-0.711,-0.644 -1.428,-0.984 -1.949,-1.108c-0.52,-0.132 -0.83,-0.121 -0.831,-0.167c-0.004,-0.026 0.306,-0.109 0.872,-0.031c0.563,0.067 1.363,0.38 2.149,1.028c0.794,0.634 1.535,1.625 2.16,2.778c0.648,1.139 1.249,2.45 2.223,3.533c0.979,1.073 2.25,1.755 3.471,2.054c1.227,0.309 2.396,0.222 3.325,-0.011c1.881,-0.488 2.786,-1.403 2.842,-1.314" style="fill:#455a64;fill-rule:nonzero;"/><path d="M379.524,247.576c0.013,0.001 -0.017,0.203 -0.143,0.569c-0.128,0.364 -0.396,0.883 -0.901,1.427c-0.499,0.544 -1.264,1.078 -2.259,1.429c-0.987,0.346 -2.243,0.481 -3.536,0.138c-2.622,-0.638 -5.094,-3.014 -6.603,-6.118c-1.6,-3.065 -2.466,-6.833 -4.777,-9.99c-1.141,-1.572 -2.681,-2.748 -4.375,-3.421c-1.696,-0.663 -3.489,-0.881 -5.163,-0.752c-3.389,0.227 -6.152,1.863 -8.039,3.561c-1.915,1.715 -3.065,3.493 -3.794,4.728c-0.721,1.25 -1.036,1.989 -1.078,1.971c-0.017,-0.007 0.049,-0.197 0.189,-0.554c0.143,-0.355 0.372,-0.871 0.711,-1.516c0.682,-1.276 1.799,-3.114 3.724,-4.903c1.892,-1.768 4.732,-3.503 8.25,-3.766c1.736,-0.147 3.606,0.066 5.389,0.756c1.777,0.694 3.42,1.949 4.604,3.584c2.395,3.286 3.238,7.078 4.787,10.084c1.453,3.045 3.798,5.329 6.27,5.98c1.216,0.346 2.395,0.245 3.35,-0.06c0.956,-0.308 1.706,-0.794 2.206,-1.294c1.015,-1.018 1.121,-1.891 1.188,-1.853" style="fill:#455a64;fill-rule:nonzero;"/><path d="M379.142,254.604c0.014,0.013 -0.113,0.159 -0.366,0.428c-0.265,0.257 -0.655,0.639 -1.225,1.054c-0.567,0.414 -1.299,0.889 -2.239,1.254c-0.934,0.367 -2.091,0.634 -3.373,0.509c-2.547,-0.292 -5.371,-1.914 -7.372,-4.621c-1.013,-1.348 -1.748,-2.97 -2.341,-4.674c-0.597,-1.706 -1.066,-3.508 -1.705,-5.282c-0.645,-1.767 -1.453,-3.442 -2.591,-4.78c-1.114,-1.357 -2.601,-2.27 -4.15,-2.694c-3.143,-0.852 -6.175,-0.045 -8.337,1.065c-2.202,1.125 -3.736,2.464 -4.778,3.375c-0.478,0.438 -0.87,0.796 -1.183,1.083c-0.268,0.251 -0.415,0.377 -0.428,0.364c-0.013,-0.012 0.109,-0.163 0.354,-0.438c0.247,-0.272 0.617,-0.67 1.119,-1.157c1.007,-0.963 2.516,-2.36 4.747,-3.554c2.191,-1.176 5.32,-2.069 8.634,-1.2c1.633,0.43 3.237,1.404 4.411,2.826c1.201,1.402 2.034,3.132 2.691,4.932c0.651,1.808 1.116,3.609 1.698,5.293c0.578,1.682 1.282,3.254 2.246,4.558c1.901,2.623 4.619,4.219 7.023,4.538c1.208,0.142 2.319,-0.086 3.232,-0.415c0.919,-0.327 1.651,-0.766 2.225,-1.147c1.145,-0.781 1.673,-1.356 1.708,-1.317" style="fill:#455a64;fill-rule:nonzero;"/><path d="M341.872,408.625c0,0 3.629,-13.911 5.842,-21.403l5.36,21.052l-11.202,0.351Zm-70.66,-5.198l1.683,4.227l-3.323,38.481l84.95,0l-3.793,-11.502l10.562,0.535c16.29,0.825 29.597,-13.727 26.429,-29.727c-0.095,-0.481 -0.204,-0.962 -0.327,-1.442c-5.274,-20.593 -12.44,-48.267 -14.938,-56.44c-4.128,-13.512 -13.319,-19.926 -13.319,-19.926c-0.052,-0.007 -0.1,-0.007 -0.152,-0.013c-12.709,-10.367 -30.023,-11.285 -30.023,-11.285l-6.372,4.272c-6.477,4.342 -14.635,4.907 -21.529,1.777c-2.544,-1.155 -4.457,-3.37 -5.25,-6.049c-7.685,0.93 -15.249,2.7 -21.668,5.625c-7.954,3.623 -13.974,10.481 -16.796,18.752l-22.185,65.026l-37.78,-5.11l-8.077,22.064l38.281,9.117c14.151,4.208 29.317,-2.061 36.369,-15.032l7.258,-13.35" style="fill:#e8505b;fill-rule:nonzero;"/><path d="M370.755,435.386c0,0 -0.147,0.014 -0.435,0.021c-0.303,0.004 -0.729,0.011 -1.284,0.02c-1.147,0.009 -2.817,0.022 -4.979,0.039c-4.368,0.017 -10.714,0.04 -18.709,0.07c-16.026,0.023 -38.649,0.056 -65.107,0.094l-0.255,0l0.012,-0.254c0.336,-7.934 0.688,-16.264 1.052,-24.867l0.01,-0.238l0.238,-0.007c7.787,-0.245 15.904,-0.5 24.19,-0.761c16.79,-0.52 32.885,-1.018 47.579,-1.472l-0.228,0.31c-1.782,-6.494 -3.228,-12.811 -4.632,-18.845c-1.356,-6.042 -2.65,-11.804 -3.873,-17.244c-0.598,-2.721 -1.176,-5.363 -1.738,-7.918c-0.549,-2.549 -1.171,-5.023 -1.356,-7.47c-0.219,-2.437 -0.178,-4.796 0.031,-7.035c0.214,-2.235 0.558,-4.369 1.156,-6.331c1.167,-3.926 3.234,-7.137 5.664,-9.238c2.423,-2.138 5.13,-3.072 7.31,-3.405c2.209,-0.328 3.945,-0.032 5.046,0.283c0.553,0.174 0.966,0.318 1.231,0.449c0.269,0.117 0.401,0.187 0.401,0.187c-0.012,0.034 -0.546,-0.253 -1.652,-0.556c-1.101,-0.287 -2.822,-0.554 -5,-0.204c-2.151,0.354 -4.815,1.301 -7.18,3.422c-2.379,2.087 -4.397,5.262 -5.531,9.148c-0.581,1.939 -0.909,4.055 -1.113,6.276c-0.2,2.221 -0.229,4.559 -0.002,6.97c0.192,2.416 0.815,4.862 1.375,7.42c0.57,2.553 1.156,5.193 1.762,7.912c1.236,5.436 2.543,11.194 3.915,17.232c1.414,6.026 2.871,12.344 4.656,18.814l0.083,0.301l-0.311,0.01c-14.693,0.465 -30.788,0.973 -47.576,1.505c-8.287,0.258 -16.405,0.51 -24.192,0.753l0.249,-0.245c-0.373,8.601 -0.734,16.931 -1.078,24.865l-0.243,-0.254c26.457,0.038 49.08,0.07 65.107,0.094c7.995,0.03 14.341,0.053 18.708,0.07c2.163,0.017 3.832,0.029 4.98,0.038c0.554,0.009 0.98,0.016 1.283,0.02c0.289,0.007 0.435,0.021 0.435,0.021" style="fill:#263238;fill-rule:nonzero;"/><path d="M275.924,346.854c0.018,-0.001 0.032,0.213 0.043,0.621c-0.005,0.407 0.052,1.014 -0.014,1.787c-0.068,1.554 -0.403,3.793 -1.158,6.468c-0.745,2.68 -1.948,5.765 -3.317,9.154c-1.343,3.394 -2.866,7.134 -3.654,11.255c-0.831,4.116 -0.604,8.169 -0.063,11.756c0.579,3.596 1.47,6.77 2.302,9.401c0.836,2.633 1.59,4.742 2.104,6.201c0.238,0.688 0.432,1.247 0.583,1.684c0.128,0.387 0.188,0.593 0.171,0.6c-0.017,0.006 -0.109,-0.188 -0.269,-0.563c-0.175,-0.428 -0.399,-0.975 -0.675,-1.65c-0.573,-1.439 -1.381,-3.529 -2.265,-6.157c-0.88,-2.627 -1.813,-5.811 -2.425,-9.44c-0.573,-3.62 -0.819,-7.739 0.026,-11.93c0.801,-4.189 2.352,-7.95 3.719,-11.336c1.396,-3.384 2.625,-6.434 3.41,-9.078c0.793,-2.639 1.179,-4.843 1.308,-6.379c0.125,-1.536 0.122,-2.394 0.174,-2.394" style="fill:#263238;fill-rule:nonzero;"/><path d="M353.074,408.275c-0.011,-0.057 0.659,-0.246 1.774,-0.235c1.109,0.009 2.661,0.253 4.215,0.97c1.557,0.711 2.754,1.79 3.348,2.749c0.611,0.954 0.698,1.667 0.651,1.674c-0.09,0.031 -0.301,-0.62 -0.951,-1.461c-0.635,-0.849 -1.784,-1.809 -3.266,-2.489c-1.481,-0.684 -2.951,-0.974 -4.017,-1.076c-1.069,-0.104 -1.743,-0.047 -1.754,-0.132" style="fill:#263238;fill-rule:nonzero;"/><path d="M345.591,320.099c0.014,-0.033 0.579,0.182 1.59,0.601c0.504,0.212 1.127,0.46 1.835,0.782c0.713,0.346 1.508,0.731 2.377,1.154c0.88,0.431 1.802,0.98 2.815,1.53c0.999,0.574 2.032,1.247 3.125,1.946c2.139,1.467 4.402,3.221 6.551,5.316c4.286,4.223 7.038,9.074 8.26,12.802c0.31,0.931 0.594,1.773 0.756,2.538c0.183,0.758 0.354,1.406 0.42,1.952c0.173,1.083 0.25,1.683 0.215,1.688c-0.035,0.005 -0.181,-0.583 -0.413,-1.647c-0.096,-0.536 -0.295,-1.174 -0.504,-1.917c-0.185,-0.751 -0.492,-1.576 -0.821,-2.489c-1.298,-3.654 -4.05,-8.388 -8.278,-12.557c-2.123,-2.067 -4.352,-3.813 -6.455,-5.29c-1.077,-0.702 -2.093,-1.385 -3.076,-1.97c-0.996,-0.563 -1.902,-1.126 -2.766,-1.577c-0.854,-0.444 -1.633,-0.851 -2.332,-1.216c-0.678,-0.326 -1.275,-0.612 -1.791,-0.861c-0.984,-0.473 -1.522,-0.752 -1.508,-0.785" style="fill:#263238;fill-rule:nonzero;"/><g><g opacity="0.300003"><clipPath id="_clip1"><rect x="333.973" y="361.995" width="13.859" height="46.63" clip-rule="nonzero"/></clipPath><g clip-path="url(#_clip1)"><path d="M342.28,361.994c0,0 -8.439,37.269 -8.306,40.915c0.134,3.646 0.862,5.656 0.862,5.656l7.036,0.06l0.055,-0.688l5.906,-21.086l-5.553,-24.857Z" style="fill-rule:nonzero;"/></g></g></g><path d="M295.905,360.122c0.028,0.055 -0.899,0.412 -2.316,1.458c-1.371,1.06 -3.269,2.928 -4.325,5.895c-0.523,1.466 -0.829,3.182 -0.693,5.012c0.116,1.82 0.612,3.768 1.676,5.532c1.033,1.773 2.563,3.385 4.502,4.503c0.961,0.566 2.014,1.02 3.134,1.295c1.11,0.315 2.287,0.42 3.467,0.405c1.188,-0.006 2.342,-0.249 3.45,-0.561c1.091,-0.368 2.131,-0.842 3.067,-1.456c1.86,-1.23 3.343,-2.894 4.275,-4.722c0.94,-1.828 1.386,-3.78 1.411,-5.61c0.016,-1.831 -0.346,-3.535 -0.948,-4.973c-1.212,-2.906 -3.184,-4.687 -4.611,-5.673c-1.465,-0.975 -2.409,-1.288 -2.384,-1.343c0.007,-0.017 0.238,0.063 0.676,0.231c0.434,0.174 1.06,0.473 1.819,0.944c1.484,0.948 3.547,2.725 4.839,5.698c0.642,1.47 1.039,3.226 1.041,5.12c-0.007,1.891 -0.452,3.922 -1.416,5.826c-0.958,1.904 -2.49,3.643 -4.423,4.929c-0.971,0.641 -2.053,1.138 -3.19,1.523c-1.154,0.327 -2.357,0.58 -3.593,0.587c-1.229,0.017 -2.455,-0.095 -3.611,-0.424c-1.166,-0.289 -2.263,-0.764 -3.261,-1.355c-2.014,-1.171 -3.599,-2.855 -4.659,-4.703c-1.092,-1.839 -1.591,-3.866 -1.693,-5.748c-0.12,-1.893 0.218,-3.661 0.78,-5.163c1.132,-3.04 3.122,-4.908 4.549,-5.932c0.739,-0.504 1.347,-0.836 1.773,-1.03c0.43,-0.19 0.656,-0.282 0.664,-0.265" style="fill:#fff;fill-rule:nonzero;"/><ellipse cx="301.047" cy="367.021" rx="0.261" ry="9.177" style="fill:#fff;"/><path d="M268.807,409.974l-5.496,-2.237c0,0 -6.394,-10.838 -7.698,-10.318c-1.306,0.521 -1.505,3.827 1.099,8.825l-7.231,-1.636c0,0 -15.03,7.987 -14.295,8.909c0.736,0.923 2.127,3.127 5.392,1.221c3.264,-1.907 7.554,-4.168 7.554,-4.168l8.446,1.912l-10.644,1.957l-9.57,9.735c0,0 3.448,2.291 6.157,-0.496l26.499,4.167l11.222,0.011l0.599,-14.828l-12.034,-3.054Z" style="fill:#ffbe9d;fill-rule:nonzero;"/><path d="M242.522,423.678c0.115,0.066 0.559,-0.734 1.445,-1.815c0.447,-0.531 1.057,-1.094 1.824,-1.58c0.738,-0.467 1.718,-0.708 2.787,-0.896c4.334,-0.76 7.823,-1.556 7.783,-1.779c-0.04,-0.223 -3.585,0.21 -7.929,0.971c-1.09,0.194 -2.193,0.473 -3.056,1.072c-0.824,0.572 -1.448,1.239 -1.87,1.859c-0.823,1.25 -1.065,2.125 -0.984,2.168" style="fill:#eb996e;fill-rule:nonzero;"/><path d="M246.676,424.501c0.099,-0.005 0.151,-0.552 0.876,-0.75c0.741,-0.178 1.926,-0.386 3.159,-0.583c2.501,-0.395 4.569,-0.49 4.577,-0.725c0.015,-0.217 -2.111,-0.493 -4.702,-0.086c-1.303,0.213 -2.407,0.487 -3.258,0.859c-0.439,0.21 -0.708,0.593 -0.75,0.868c-0.052,0.285 0.05,0.429 0.098,0.417" style="fill:#eb996e;fill-rule:nonzero;"/><path d="M268.077,409.677c-0.028,0.072 -1.024,-0.259 -2.646,-0.75c-1.619,-0.494 -3.872,-1.123 -6.377,-1.757c-2.424,-0.609 -4.615,-1.16 -6.431,-1.616c-1.643,-0.432 -2.649,-0.743 -2.632,-0.812c0.017,-0.071 1.052,0.114 2.716,0.454c1.663,0.341 3.957,0.835 6.474,1.469c2.516,0.636 4.768,1.325 6.367,1.912c1.6,0.584 2.553,1.038 2.529,1.1" style="fill:#eb996e;fill-rule:nonzero;"/></g><g id="Screens"><path d="M360.305,130.744c-0.018,-0.017 -0.034,-0.395 -0.052,-1.086c-0.014,-0.749 -0.034,-1.739 -0.058,-2.964c-0.029,-2.584 -0.069,-6.155 -0.116,-10.412l0.226,0.225c-4.221,0.01 -9.175,0.022 -14.462,0.035c-0.059,0.056 0.492,-0.492 0.26,-0.258l0,0.492l-0.001,0.493l0,0.981c-0.001,0.651 -0.001,1.295 -0.002,1.933c-0.002,1.276 -0.005,2.524 -0.007,3.739c-0.009,2.425 -0.017,4.715 -0.025,6.822l-0.226,-0.225c4.259,0.047 7.829,0.086 10.413,0.115c1.225,0.024 2.214,0.044 2.964,0.059c0.69,0.018 1.068,0.034 1.086,0.051c0.017,0.017 -0.328,0.034 -0.993,0.052c-0.736,0.014 -1.709,0.034 -2.913,0.059c-2.62,0.028 -6.24,0.067 -10.557,0.115l-0.225,0.002l0,-0.228c-0.008,-2.107 -0.017,-4.397 -0.026,-6.822c-0.003,-1.215 -0.005,-2.463 -0.007,-3.739c-0.001,-0.638 -0.001,-1.282 -0.002,-1.933l-0.001,-0.981l0,-0.493l0,-0.248l0,-0.124l0,-0.062l0,-0.031l0,-0.015l0,-0.008l0,-0.004c-0.232,0.231 0.317,-0.32 0.262,-0.263c5.287,0.013 10.241,0.025 14.462,0.035l0.228,0.001l-0.003,0.225c-0.047,4.316 -0.086,7.936 -0.115,10.556c-0.024,1.204 -0.044,2.177 -0.058,2.913c-0.019,0.665 -0.035,1.01 -0.052,0.993" style="fill:#263238;fill-rule:nonzero;"/><path d="M360.305,116.428c0.102,0.102 -3.046,3.405 -7.028,7.376c-3.985,3.974 -7.296,7.111 -7.398,7.009c-0.101,-0.102 3.045,-3.404 7.03,-7.377c3.982,-3.972 7.294,-7.11 7.396,-7.008" style="fill:#263238;fill-rule:nonzero;"/><path d="M360.077,130.655c-0.103,0.102 -3.344,-3.001 -7.239,-6.929c-3.897,-3.93 -6.972,-7.196 -6.869,-7.298c0.101,-0.101 3.342,3.001 7.239,6.931c3.895,3.928 6.971,7.195 6.869,7.296" style="fill:#263238;fill-rule:nonzero;"/><path d="M445.926,214.889c-0.024,-0.026 0.252,-0.336 0.773,-0.875c0.609,-0.608 1.359,-1.359 2.245,-2.246c1.911,-1.88 4.574,-4.451 7.539,-7.267l0.067,-0.064l0.003,0.38c-2.987,-2.764 -5.669,-5.283 -7.591,-7.126c-0.89,-0.868 -1.645,-1.604 -2.257,-2.2c-0.525,-0.528 -0.803,-0.832 -0.779,-0.858c0.024,-0.027 0.35,0.227 0.916,0.71c0.643,0.563 1.435,1.258 2.37,2.079c1.985,1.773 4.706,4.25 7.694,7.012l0.204,0.189l-0.202,0.191l-0.067,0.065c-2.964,2.816 -5.668,5.344 -7.644,7.156c-0.93,0.839 -1.718,1.55 -2.358,2.126c-0.564,0.494 -0.889,0.754 -0.913,0.728" style="fill:#263238;fill-rule:nonzero;"/><path d="M422.873,194.633c0.024,0.026 -0.252,0.336 -0.773,0.875c-0.609,0.608 -1.359,1.359 -2.245,2.246c-1.911,1.88 -4.574,4.451 -7.539,7.267l-0.067,0.064l-0.003,-0.38c2.987,2.763 5.668,5.283 7.591,7.125c0.89,0.869 1.645,1.605 2.257,2.201c0.525,0.528 0.803,0.832 0.779,0.858c-0.024,0.027 -0.35,-0.228 -0.916,-0.71c-0.643,-0.564 -1.435,-1.258 -2.37,-2.079c-1.985,-1.773 -4.706,-4.25 -7.694,-7.012l-0.205,-0.189l0.203,-0.192l0.067,-0.064c2.964,-2.816 5.668,-5.344 7.644,-7.156c0.931,-0.84 1.718,-1.55 2.358,-2.126c0.564,-0.494 0.889,-0.754 0.913,-0.728" style="fill:#263238;fill-rule:nonzero;"/><path d="M428.79,219.661c-0.135,-0.052 2.285,-6.827 5.404,-15.131c3.12,-8.308 5.758,-15 5.893,-14.95c0.135,0.052 -2.285,6.826 -5.405,15.132c-3.119,8.305 -5.757,14.998 -5.892,14.948" style="fill:#263238;fill-rule:nonzero;"/><path d="M472.125,234.157c0,0 -0.017,-0.393 -0.024,-1.133c-0.006,-0.755 -0.014,-1.843 -0.025,-3.259c-0.013,-2.862 -0.032,-7.031 -0.055,-12.344c-0.028,-10.627 -0.067,-25.814 -0.114,-44.124l0.218,0.216c-21.451,0.013 -47.247,0.028 -74.984,0.044l-0.006,0l0.26,-0.26c-0.01,22.001 -0.02,42.778 -0.028,60.86l-0.232,-0.232c22.263,0.047 40.98,0.088 54.149,0.116c6.585,0.027 11.779,0.048 15.348,0.062c1.77,0.012 3.134,0.021 4.074,0.027c0.453,0.006 0.801,0.01 1.054,0.014c0.237,0.004 0.365,0.013 0.365,0.013c0,0 -0.11,0.009 -0.339,0.014c-0.246,0.003 -0.586,0.007 -1.027,0.013c-0.931,0.006 -2.279,0.015 -4.029,0.028c-3.556,0.014 -8.733,0.035 -15.295,0.061c-13.206,0.029 -31.974,0.069 -54.3,0.116l-0.233,0.001l-0.001,-0.233c-0.007,-18.082 -0.017,-38.859 -0.027,-60.86l0,-0.261l0.267,0c27.737,0.016 53.533,0.031 74.984,0.043l0.218,0l-0.001,0.218c-0.047,18.367 -0.085,33.601 -0.113,44.261c-0.024,5.291 -0.042,9.444 -0.055,12.295c-0.011,1.398 -0.02,2.473 -0.026,3.218c-0.007,0.725 -0.023,1.086 -0.023,1.086" style="fill:#263238;fill-rule:nonzero;"/><path d="M472.712,182.327c0,0.144 -16.928,0.26 -37.803,0.26c-20.885,0 -37.808,-0.116 -37.808,-0.26c0,-0.144 16.923,-0.261 37.808,-0.261c20.875,0 37.803,0.117 37.803,0.261" style="fill:#263238;fill-rule:nonzero;"/><path d="M403.253,177.885c0,0.558 -0.451,1.01 -1.009,1.01c-0.556,0 -1.01,-0.452 -1.01,-1.01c0,-0.558 0.454,-1.01 1.01,-1.01c0.558,0 1.01,0.452 1.01,1.01" style="fill:#263238;fill-rule:nonzero;"/><path d="M406.934,177.885c0,0.558 -0.452,1.01 -1.01,1.01c-0.557,0 -1.01,-0.452 -1.01,-1.01c0,-0.558 0.453,-1.01 1.01,-1.01c0.558,0 1.01,0.452 1.01,1.01" style="fill:#263238;fill-rule:nonzero;"/><path d="M410.615,177.885c0,0.558 -0.452,1.01 -1.01,1.01c-0.557,0 -1.01,-0.452 -1.01,-1.01c0,-0.558 0.453,-1.01 1.01,-1.01c0.558,0 1.01,0.452 1.01,1.01" style="fill:#263238;fill-rule:nonzero;"/><rect x="260.342" y="81.31" width="59.253" height="42.237" style="fill:#455a64;"/><path d="M320.059,87.577c0,0.144 -13.375,0.261 -29.87,0.261c-16.501,0 -29.873,-0.117 -29.873,-0.261c0,-0.144 13.372,-0.26 29.873,-0.26c16.495,0 29.87,0.116 29.87,0.26" style="fill:#fff;fill-rule:nonzero;"/><path d="M265.178,84.494c0,0.387 -0.357,0.701 -0.798,0.701c-0.44,0 -0.798,-0.314 -0.798,-0.701c0,-0.387 0.358,-0.701 0.798,-0.701c0.441,0 0.798,0.314 0.798,0.701" style="fill:#fff;fill-rule:nonzero;"/><path d="M268.086,84.494c0,0.387 -0.356,0.701 -0.798,0.701c-0.44,0 -0.797,-0.314 -0.797,-0.701c0,-0.387 0.357,-0.701 0.797,-0.701c0.442,0 0.798,0.314 0.798,0.701" style="fill:#fff;fill-rule:nonzero;"/><path d="M270.994,84.494c0,0.387 -0.357,0.701 -0.798,0.701c-0.44,0 -0.798,-0.314 -0.798,-0.701c0,-0.387 0.358,-0.701 0.798,-0.701c0.441,0 0.798,0.314 0.798,0.701" style="fill:#fff;fill-rule:nonzero;"/><path d="M235.201,185.676c0,0 -0.016,-0.282 -0.025,-0.803c-0.006,-0.544 -0.015,-1.309 -0.025,-2.294c-0.014,-2.022 -0.033,-4.945 -0.058,-8.657c-0.028,-7.448 -0.067,-18.056 -0.114,-30.802l0.222,0.223c-13.254,0.011 -29.009,0.023 -45.867,0.038c-0.062,0.055 0.489,-0.49 0.256,-0.254l0,2.887c0,0.963 -0.001,1.921 -0.001,2.875c0,1.909 -0.001,3.8 -0.001,5.672c-0.003,3.744 -0.005,7.411 -0.007,10.983c-0.008,7.141 -0.016,13.901 -0.024,20.132l-0.228,-0.228c13.675,0.048 25.111,0.087 33.155,0.116c4.01,0.025 7.174,0.046 9.362,0.059c1.068,0.012 1.897,0.021 2.484,0.027c0.269,0.005 0.48,0.01 0.645,0.013c0.145,0.004 0.222,0.009 0.226,0.013c0.004,0.004 -0.063,0.009 -0.201,0.013c-0.158,0.003 -0.361,0.008 -0.619,0.013c-0.577,0.006 -1.391,0.015 -2.441,0.027c-2.176,0.013 -5.322,0.034 -9.31,0.059c-8.079,0.029 -19.565,0.068 -33.301,0.116l-0.227,0.001l-0.001,-0.229c-0.007,-6.231 -0.015,-12.991 -0.024,-20.132c-0.001,-3.572 -0.004,-7.239 -0.006,-10.983c0,-1.872 -0.001,-3.763 -0.001,-5.672c-0.001,-0.954 -0.001,-1.912 -0.001,-2.875l0,-1.446l0,-0.725l0,-0.363l0,-0.182l0,-0.091l0,-0.046l0,-0.022l0,-0.012c-0.233,0.229 0.316,-0.326 0.265,-0.267c16.858,0.014 32.613,0.027 45.867,0.038l0.223,0l0,0.222c-0.048,12.805 -0.087,23.461 -0.115,30.943c-0.025,3.69 -0.044,6.596 -0.057,8.607c-0.011,0.967 -0.02,1.717 -0.026,2.251c-0.008,0.506 -0.025,0.755 -0.025,0.755" style="fill:#e8505b;fill-rule:nonzero;"/><text x="202.331px" y="174.682px" style="font-family:'ArialMT', 'Arial', sans-serif;font-size:28.783px;fill:#e8505b;">B</text><path d="M235.105,147.515c0,0.144 -10.254,0.261 -22.899,0.261c-12.651,0 -22.902,-0.117 -22.902,-0.261c0,-0.144 10.251,-0.26 22.902,-0.26c12.645,0 22.899,0.116 22.899,0.26" style="fill:#e8505b;fill-rule:nonzero;"/><path d="M194.202,144.41c0,0.39 -0.36,0.706 -0.804,0.706c-0.444,0 -0.803,-0.316 -0.803,-0.706c0,-0.39 0.359,-0.706 0.803,-0.706c0.444,0 0.804,0.316 0.804,0.706" style="fill:#e8505b;fill-rule:nonzero;"/><path d="M197.131,144.41c0,0.39 -0.36,0.706 -0.804,0.706c-0.444,0 -0.803,-0.316 -0.803,-0.706c0,-0.39 0.359,-0.706 0.803,-0.706c0.444,0 0.804,0.316 0.804,0.706" style="fill:#e8505b;fill-rule:nonzero;"/><path d="M200.062,144.41c0,0.39 -0.36,0.706 -0.804,0.706c-0.444,0 -0.803,-0.316 -0.803,-0.706c0,-0.39 0.359,-0.706 0.803,-0.706c0.444,0 0.804,0.316 0.804,0.706" style="fill:#e8505b;fill-rule:nonzero;"/><path d="M402.471,101.575c0,-4.312 3.276,-7.502 7.672,-7.502c2.092,0 3.973,0.676 5.262,2.049l-0.676,0.698c-1.269,-1.247 -2.811,-1.754 -4.544,-1.754c-3.783,0 -6.636,2.789 -6.636,6.509c0,3.719 2.853,6.509 6.636,6.509c1.733,0 3.275,-0.529 4.544,-1.775l0.676,0.697c-1.289,1.374 -3.17,2.071 -5.262,2.071c-4.396,0 -7.672,-3.191 -7.672,-7.502" style="fill:#e8505b;fill-rule:nonzero;"/><path d="M417.434,107.07l0.485,-0.803c1.015,1.056 2.896,1.86 4.882,1.86c2.959,0 4.27,-1.289 4.27,-2.896c0,-4.438 -9.236,-1.775 -9.236,-7.227c0,-2.093 1.607,-3.931 5.242,-3.931c1.627,0 3.317,0.507 4.459,1.331l-0.402,0.867c-1.225,-0.846 -2.726,-1.247 -4.057,-1.247c-2.874,0 -4.164,1.331 -4.164,2.959c0,4.438 9.235,1.817 9.235,7.185c0,2.092 -1.669,3.909 -5.325,3.909c-2.199,0 -4.312,-0.824 -5.389,-2.007" style="fill:#e8505b;fill-rule:nonzero;"/><path d="M430.303,107.07l0.485,-0.803c1.015,1.056 2.896,1.86 4.882,1.86c2.959,0 4.27,-1.289 4.27,-2.896c0,-4.438 -9.236,-1.775 -9.236,-7.227c0,-2.093 1.607,-3.931 5.242,-3.931c1.627,0 3.317,0.507 4.459,1.331l-0.402,0.867c-1.225,-0.846 -2.726,-1.247 -4.057,-1.247c-2.874,0 -4.164,1.331 -4.164,2.959c0,4.438 9.235,1.817 9.235,7.185c0,2.092 -1.669,3.909 -5.325,3.909c-2.199,0 -4.312,-0.824 -5.389,-2.007" style="fill:#e8505b;fill-rule:nonzero;"/><path d="M453.611,120.807c0,0 -0.016,-0.273 -0.022,-0.784c-0.006,-0.528 -0.014,-1.279 -0.024,-2.251c-0.012,-1.986 -0.029,-4.871 -0.052,-8.56c-0.026,-7.394 -0.063,-18.006 -0.109,-30.961l0.206,0.207c-18.037,0.015 -40.981,0.034 -65.886,0.054l-0.006,0l0.261,-0.261c-0.008,15.114 -0.014,29.503 -0.02,42.556l-0.241,-0.239c19.332,0.048 35.772,0.088 47.4,0.117c5.81,0.028 10.418,0.05 13.595,0.065c1.569,0.013 2.784,0.022 3.628,0.029c0.401,0.006 0.71,0.01 0.941,0.014c0.213,0.005 0.324,0.01 0.329,0.014c0.004,0.005 -0.097,0.01 -0.301,0.014c-0.223,0.004 -0.524,0.008 -0.914,0.014c-0.833,0.007 -2.031,0.017 -3.58,0.03c-3.164,0.015 -7.753,0.037 -13.54,0.064c-11.668,0.029 -28.162,0.07 -47.558,0.118l-0.239,0l0,-0.24c-0.007,-13.053 -0.014,-27.442 -0.02,-42.556l0,-0.26l0.265,0c24.905,0.021 47.849,0.039 65.886,0.054l0.208,0l-0.001,0.206c-0.046,13.009 -0.083,23.664 -0.108,31.09c-0.023,3.668 -0.041,6.538 -0.053,8.513c-0.01,0.955 -0.018,1.693 -0.024,2.212c-0.006,0.497 -0.021,0.741 -0.021,0.741" style="fill:#e8505b;fill-rule:nonzero;"/><path d="M453.611,84.566c0,0.144 -14.758,0.26 -32.958,0.26c-18.206,0 -32.961,-0.116 -32.961,-0.26c0,-0.144 14.755,-0.261 32.961,-0.261c18.2,0 32.958,0.117 32.958,0.261" style="fill:#e8505b;fill-rule:nonzero;"/><path d="M392.59,81.461c0,0.39 -0.359,0.706 -0.804,0.706c-0.443,0 -0.803,-0.316 -0.803,-0.706c0,-0.39 0.36,-0.706 0.803,-0.706c0.445,0 0.804,0.316 0.804,0.706" style="fill:#e8505b;fill-rule:nonzero;"/><path d="M395.52,81.461c0,0.39 -0.359,0.706 -0.804,0.706c-0.443,0 -0.803,-0.316 -0.803,-0.706c0,-0.39 0.36,-0.706 0.803,-0.706c0.445,0 0.804,0.316 0.804,0.706" style="fill:#e8505b;fill-rule:nonzero;"/><path d="M398.451,81.461c0,0.39 -0.36,0.706 -0.804,0.706c-0.444,0 -0.803,-0.316 -0.803,-0.706c0,-0.39 0.359,-0.706 0.803,-0.706c0.444,0 0.804,0.316 0.804,0.706" style="fill:#e8505b;fill-rule:nonzero;"/><rect x="285.902" y="142.856" width="82.745" height="58.983" style="fill:#e8505b;"/><path d="M342.92,170.132l2.71,0l0,9.499l5.869,0l0,2.208l-8.579,0l0,-11.707Z" style="fill:#fff;fill-rule:nonzero;"/><path d="M337.928,182.055l-0.017,-7.025l-3.445,5.786l-1.221,0l-3.428,-5.636l0,6.874l-2.542,0l0,-11.707l2.241,0l4.382,7.275l4.314,-7.275l2.225,0l0.032,11.707l-2.541,0Z" style="fill:#fff;fill-rule:nonzero;"/><path d="M313.808,170.245l0,11.707l-2.71,0l0,-4.8l-5.317,0l0,4.8l-2.71,0l0,-11.707l2.71,0l0,4.616l5.317,0l0,-4.616l2.71,0Z" style="fill:#fff;fill-rule:nonzero;"/><path d="M319.009,172.452l-3.746,0l0,-2.208l10.202,0l0,2.208l-3.746,0l0,9.499l-2.71,0l0,-9.499Z" style="fill:#fff;fill-rule:nonzero;"/><path d="M369.295,151.608c0,0.144 -18.678,0.26 -41.713,0.26c-23.043,0 -41.717,-0.116 -41.717,-0.26c0,-0.144 18.674,-0.26 41.717,-0.26c23.035,0 41.713,0.116 41.713,0.26" style="fill:#fff;fill-rule:nonzero;"/><path d="M292.655,147.304c0,0.54 -0.498,0.978 -1.114,0.978c-0.615,0 -1.114,-0.438 -1.114,-0.978c0,-0.541 0.499,-0.979 1.114,-0.979c0.616,0 1.114,0.438 1.114,0.979" style="fill:#fff;fill-rule:nonzero;"/><path d="M296.716,147.304c0,0.54 -0.499,0.978 -1.114,0.978c-0.615,0 -1.115,-0.438 -1.115,-0.978c0,-0.541 0.5,-0.979 1.115,-0.979c0.615,0 1.114,0.438 1.114,0.979" style="fill:#fff;fill-rule:nonzero;"/><path d="M300.777,147.304c0,0.54 -0.499,0.978 -1.114,0.978c-0.615,0 -1.115,-0.438 -1.115,-0.978c0,-0.541 0.5,-0.979 1.115,-0.979c0.615,0 1.114,0.438 1.114,0.979" style="fill:#fff;fill-rule:nonzero;"/><path d="M115.367,258.991c-0.004,-0.005 -0.008,-0.07 -0.013,-0.197c-0.003,-0.145 -0.007,-0.325 -0.012,-0.554c-0.007,-0.513 -0.016,-1.226 -0.027,-2.141c-0.013,-1.887 -0.033,-4.609 -0.058,-8.06c-0.028,-6.932 -0.068,-16.787 -0.115,-28.601l0.225,0.226c-11.502,0.011 -25.07,0.023 -39.548,0.034c-0.061,0.056 0.49,-0.488 0.257,-0.252l0,2.694c-0.001,0.898 -0.001,1.792 -0.001,2.683c0,1.779 -0.001,3.543 -0.001,5.287c-0.003,3.489 -0.005,6.903 -0.007,10.224c-0.01,6.639 -0.018,12.907 -0.026,18.657l-0.225,-0.226c11.814,0.048 21.669,0.087 28.601,0.116c3.45,0.025 6.172,0.045 8.06,0.058c0.915,0.011 1.628,0.02 2.139,0.027c0.229,0.004 0.409,0.008 0.555,0.012c0.126,0.004 0.192,0.008 0.196,0.013c0.004,0.004 -0.053,0.008 -0.171,0.013c-0.139,0.003 -0.312,0.007 -0.531,0.012c-0.5,0.006 -1.198,0.015 -2.095,0.026c-1.877,0.014 -4.581,0.034 -8.01,0.059c-6.966,0.028 -16.87,0.068 -28.744,0.115l-0.225,0.001l-0.001,-0.226c-0.008,-5.75 -0.016,-12.018 -0.026,-18.657c-0.002,-3.321 -0.004,-6.735 -0.007,-10.224c0,-1.744 -0.001,-3.508 -0.001,-5.287c-0.001,-0.891 -0.001,-1.785 -0.001,-2.683l0,-1.349l0,-0.677l0,-0.339l0,-0.17l0,-0.085l0,-0.042l0,-0.021l0,-0.011c-0.232,0.23 0.316,-0.325 0.264,-0.267c14.478,0.013 28.046,0.025 39.548,0.035l0.226,0l-0.001,0.225c-0.047,11.873 -0.087,21.778 -0.115,28.744c-0.025,3.429 -0.045,6.133 -0.058,8.01c-0.011,0.898 -0.02,1.595 -0.027,2.096c-0.005,0.219 -0.009,0.391 -0.012,0.531c-0.004,0.117 -0.009,0.175 -0.013,0.171" style="fill:#263238;fill-rule:nonzero;"/><path d="M115.367,219.84c0.102,0.102 -8.648,8.991 -19.54,19.853c-10.896,10.865 -19.808,19.587 -19.91,19.485c-0.101,-0.102 8.646,-8.989 19.542,-19.854c10.892,-10.861 19.806,-19.586 19.908,-19.484" style="fill:#263238;fill-rule:nonzero;"/><path d="M114.742,258.745c-0.102,0.102 -8.823,-8.526 -19.476,-19.268c-10.656,-10.746 -19.209,-19.536 -19.107,-19.637c0.102,-0.101 8.821,8.525 19.478,19.27c10.652,10.742 19.207,19.534 19.105,19.635" style="fill:#263238;fill-rule:nonzero;"/><path d="M197.815,230.051c0,0.144 -15.712,0.26 -35.091,0.26c-19.385,0 -35.094,-0.116 -35.094,-0.26c0,-0.144 15.709,-0.26 35.094,-0.26c19.379,0 35.091,0.116 35.091,0.26" style="fill:#263238;fill-rule:nonzero;"/><path d="M197.815,236.356c0,0.144 -15.712,0.261 -35.091,0.261c-19.385,0 -35.094,-0.117 -35.094,-0.261c0,-0.144 15.709,-0.26 35.094,-0.26c19.379,0 35.091,0.116 35.091,0.26" style="fill:#263238;fill-rule:nonzero;"/><path d="M197.815,242.662c0,0.144 -15.712,0.26 -35.091,0.26c-19.385,0 -35.094,-0.116 -35.094,-0.26c0,-0.144 15.709,-0.26 35.094,-0.26c19.379,0 35.091,0.116 35.091,0.26" style="fill:#263238;fill-rule:nonzero;"/><path d="M197.815,248.968c0,0.144 -15.712,0.261 -35.091,0.261c-19.385,0 -35.094,-0.117 -35.094,-0.261c0,-0.144 15.709,-0.26 35.094,-0.26c19.379,0 35.091,0.116 35.091,0.26" style="fill:#263238;fill-rule:nonzero;"/><path d="M159.376,223.745c0,0.144 -7.221,0.26 -16.125,0.26c-8.909,0 -16.128,-0.116 -16.128,-0.26c0,-0.144 7.219,-0.261 16.128,-0.261c8.904,0 16.125,0.117 16.125,0.261" style="fill:#263238;fill-rule:nonzero;"/><path d="M63.362,207.51c-0.001,0 0.249,-0.009 0.752,-0.013c0.517,-0.002 1.268,-0.005 2.252,-0.008c2.002,-0.002 4.947,-0.004 8.764,-0.007c7.678,0.006 18.859,0.013 32.929,0.024c28.207,0.049 67.98,0.119 114.301,0.201l0.245,0l0,0.247c0.005,19.497 0.008,40.639 0.013,62.573l0,0.26l-0.26,0c-2.97,0 -6.168,0 -9.383,0.001c-1.638,0 -3.273,-0.001 -4.903,-0.001l0.261,-0.26c0,4.358 -0.001,8.685 -0.001,12.971l0,0.627l-0.442,-0.444c-4.389,-4.388 -8.716,-8.717 -12.97,-12.972l0.181,0.075c-51.835,-0.031 -97.796,-0.059 -131.74,-0.079l-0.179,0l0.001,-0.178c0.041,-19.64 0.074,-35.408 0.097,-46.279c0.019,-5.409 0.034,-9.596 0.044,-12.444c0.008,-1.407 0.015,-2.48 0.019,-3.213c0.006,-0.722 0.018,-1.081 0.018,-1.081c0,0 0.012,0.384 0.019,1.116c0.004,0.741 0.01,1.825 0.019,3.245c0.009,2.857 0.024,7.058 0.044,12.484c0.022,10.846 0.055,26.578 0.096,46.172l-0.178,-0.179c33.944,-0.019 79.906,-0.047 131.741,-0.078l0.106,-0.001l0.076,0.076c4.254,4.253 8.583,8.582 12.972,12.969l-0.442,0.184c0,-4.286 0,-8.613 -0.001,-12.971l0,-0.261l14.546,0l-0.261,0.261c0.004,-21.934 0.009,-43.076 0.013,-62.573l0.246,0.247c-46.251,-0.176 -85.967,-0.328 -114.132,-0.436c-14.094,-0.068 -25.295,-0.123 -32.985,-0.16c-3.84,-0.025 -6.801,-0.043 -8.815,-0.056c-0.997,-0.009 -1.757,-0.017 -2.28,-0.021c-0.514,-0.007 -0.784,-0.018 -0.784,-0.018" style="fill:#263238;fill-rule:nonzero;"/><text x="276.959px" y="112.036px" style="font-family:'ArialMT', 'Arial', sans-serif;font-size:24.05px;fill:#fff;">JS</text></g><g id="Desk"><rect x="381.771" y="410.84" width="86.795" height="21.776" style="fill:#455a64;"/><rect x="403.216" y="417.948" width="52.9" height="7.558" style="fill:#263238;"/><path d="M396.548,422.172c0,2.332 -1.892,4.223 -4.224,4.223c-2.332,0 -4.223,-1.891 -4.223,-4.223c0,-2.333 1.891,-4.224 4.224,-4.224c2.332,0 4.223,1.891 4.223,4.224" style="fill:#263238;fill-rule:nonzero;"/><rect x="390.921" y="398.969" width="69.326" height="11.78" style="fill:#263238;"/><rect x="390.92" y="377.202" width="86.796" height="21.776" style="fill:#e8505b;"/><path d="M417.347,387.542c0,-3.074 2.36,-5.274 5.537,-5.274c1.764,0 3.235,0.64 4.197,1.806l-1.515,1.399c-0.685,-0.786 -1.545,-1.195 -2.565,-1.195c-1.909,0 -3.264,1.341 -3.264,3.264c0,1.924 1.355,3.265 3.264,3.265c1.02,0 1.88,-0.409 2.565,-1.21l1.515,1.399c-0.962,1.181 -2.433,1.821 -4.212,1.821c-3.162,0 -5.522,-2.2 -5.522,-5.275" style="fill:#fff;fill-rule:nonzero;"/><path d="M439.429,388.432l-2.535,0l0,2.477l-1.88,0l0,-2.477l-2.522,0l0,-1.778l2.522,0l0,-2.478l1.88,0l0,2.478l2.535,0l0,1.778Z" style="fill:#fff;fill-rule:nonzero;"/><path d="M448.249,388.432l-2.535,0l0,2.477l-1.88,0l0,-2.477l-2.522,0l0,-1.778l2.522,0l0,-2.478l1.88,0l0,2.478l2.535,0l0,1.778Z" style="fill:#fff;fill-rule:nonzero;"/><path d="M403.819,398.37c-0.144,0 -0.261,-4.743 -0.261,-10.593c0,-5.851 0.117,-10.594 0.261,-10.594c0.144,0 0.261,4.743 0.261,10.594c0,5.85 -0.117,10.593 -0.261,10.593" style="fill:#fafafa;fill-rule:nonzero;"/><path d="M400.043,398.37c-0.144,0 -0.261,-4.743 -0.261,-10.593c0,-5.851 0.117,-10.594 0.261,-10.594c0.144,0 0.261,4.743 0.261,10.594c0,5.85 -0.117,10.593 -0.261,10.593" style="fill:#fafafa;fill-rule:nonzero;"/><path d="M463.896,398.37c-0.144,0 -0.261,-4.743 -0.261,-10.593c0,-5.851 0.117,-10.594 0.261,-10.594c0.144,0 0.261,4.743 0.261,10.594c0,5.85 -0.117,10.593 -0.261,10.593" style="fill:#fafafa;fill-rule:nonzero;"/><path d="M460.12,398.37c-0.144,0 -0.261,-4.743 -0.261,-10.593c0,-5.851 0.117,-10.594 0.261,-10.594c0.144,0 0.261,4.743 0.261,10.594c0,5.85 -0.117,10.593 -0.261,10.593" style="fill:#fafafa;fill-rule:nonzero;"/><path d="M419.601,404.723c0,-1.38 1.002,-2.347 2.382,-2.347c0.782,0 1.441,0.308 1.81,0.914l-0.465,0.317c-0.317,-0.466 -0.809,-0.686 -1.345,-0.686c-1.011,0 -1.749,0.721 -1.749,1.802c0,1.09 0.738,1.802 1.749,1.802c0.536,0 1.028,-0.211 1.345,-0.677l0.465,0.316c-0.369,0.598 -1.028,0.914 -1.81,0.914c-1.38,0 -2.382,-0.975 -2.382,-2.355" style="fill:#ebebeb;fill-rule:nonzero;"/><path d="M424.375,406.507l0.281,-0.492c0.369,0.29 0.993,0.518 1.644,0.518c0.879,0 1.239,-0.298 1.239,-0.755c0,-1.205 -2.997,-0.255 -2.997,-2.084c0,-0.755 0.65,-1.318 1.828,-1.318c0.598,0 1.248,0.167 1.635,0.431l-0.273,0.501c-0.404,-0.281 -0.887,-0.396 -1.362,-0.396c-0.835,0 -1.204,0.325 -1.204,0.765c0,1.248 2.997,0.308 2.997,2.083c0,0.8 -0.703,1.318 -1.907,1.318c-0.765,0 -1.503,-0.246 -1.881,-0.571" style="fill:#ebebeb;fill-rule:nonzero;"/><path d="M428.674,406.507l0.281,-0.492c0.369,0.29 0.993,0.518 1.644,0.518c0.879,0 1.239,-0.298 1.239,-0.755c0,-1.205 -2.997,-0.255 -2.997,-2.084c0,-0.755 0.65,-1.318 1.828,-1.318c0.598,0 1.248,0.167 1.635,0.431l-0.273,0.501c-0.404,-0.281 -0.887,-0.396 -1.362,-0.396c-0.835,0 -1.204,0.325 -1.204,0.765c0,1.248 2.997,0.308 2.997,2.083c0,0.8 -0.703,1.318 -1.907,1.318c-0.765,0 -1.503,-0.246 -1.881,-0.571" style="fill:#ebebeb;fill-rule:nonzero;"/><path d="M403.215,404.86c0,1.158 -0.938,2.098 -2.098,2.098c-1.158,0 -2.097,-0.94 -2.097,-2.098c0,-1.159 0.939,-2.099 2.097,-2.099c1.16,0 2.098,0.94 2.098,2.099" style="fill:#ebebeb;fill-rule:nonzero;"/><path d="M455.847,404.86c0,1.158 -0.939,2.098 -2.098,2.098c-1.159,0 -2.097,-0.94 -2.097,-2.098c0,-1.159 0.938,-2.099 2.097,-2.099c1.159,0 2.098,0.94 2.098,2.099" style="fill:#ebebeb;fill-rule:nonzero;"/><path d="M189.478,409.712l-145.829,0c-6.625,0 -11.996,-5.37 -11.996,-11.995l0,-91.72c0,-6.625 5.371,-11.996 11.996,-11.996l145.829,0c6.625,0 11.996,5.371 11.996,11.996l0,91.72c0,6.625 -5.371,11.995 -11.996,11.995" style="fill:#263238;fill-rule:nonzero;"/><path d="M88.177,382.206l-9.394,53.235l44.12,0l7.988,-54.322l-42.714,1.087Z" style="fill:#455a64;fill-rule:nonzero;"/><path d="M182.736,409.712l-145.829,0c-6.625,0 -11.995,-5.37 -11.995,-11.995l0,-91.72c0,-6.625 5.37,-11.996 11.995,-11.996l145.829,0c6.625,0 11.996,5.371 11.996,11.996l0,91.72c0,6.625 -5.371,11.995 -11.996,11.995" style="fill:#455a64;fill-rule:nonzero;"/><path d="M126.686,409.712l4.205,-28.593l1.172,28.593l-5.377,0Z" style="fill:#263238;fill-rule:nonzero;"/><path d="M88.418,379.25c0.142,0.023 -0.926,7.107 -2.385,15.821c-1.459,8.716 -2.757,15.76 -2.899,15.737c-0.141,-0.024 0.926,-7.107 2.386,-15.823c1.458,-8.714 2.756,-15.759 2.898,-15.735" style="fill:#263238;fill-rule:nonzero;"/><path d="M115.387,347.85c0,3.073 -2.492,5.564 -5.565,5.564c-3.074,0 -5.565,-2.491 -5.565,-5.564c0,-3.074 2.491,-5.565 5.565,-5.565c3.073,0 5.565,2.491 5.565,5.565" style="fill:#fafafa;fill-rule:nonzero;"/><path d="M109.822,342.31c-3.055,0 -5.54,2.485 -5.54,5.54c0,3.055 2.485,5.539 5.54,5.539c3.055,0 5.54,-2.484 5.54,-5.539c0,-3.055 -2.485,-5.54 -5.54,-5.54m0,11.13c-3.083,0 -5.59,-2.508 -5.59,-5.59c0,-3.083 2.507,-5.591 5.59,-5.591c3.083,0 5.59,2.508 5.59,5.591c0,3.082 -2.507,5.59 -5.59,5.59" style="fill:#263238;fill-rule:nonzero;"/><path d="M67.409,328.438c0,0 2.616,-3.7 1.727,-7.804c0.011,0.002 0.023,0.005 0.034,0.007c0,0 -0.013,-1.326 -1.995,-3.942c-0.66,-0.87 -1.461,-1.641 -2.224,-2.28c-0.692,-0.602 -1.451,-1.156 -2.269,-1.646c-0.272,-0.17 -0.44,-0.265 -0.44,-0.265l0,0.007c-2.689,-1.493 -5.98,-2.247 -9.683,-1.451c-2.5,0.537 -4.809,1.794 -6.554,3.663c-0.57,0.61 -1.115,1.313 -1.512,2.073c-1.19,2.286 -3.13,6.453 -1.458,11.599c0.077,0.263 0.167,0.518 0.266,0.768c0.012,0.033 0.027,0.065 0.04,0.097c0.035,0.086 0.068,0.175 0.106,0.259c0.03,0.066 0.058,0.118 0.087,0.182c0.088,0.203 0.168,0.403 0.268,0.608c0.261,0.536 0.536,1.008 0.816,1.45c0.679,1.113 1.115,1.508 1.115,1.508c0.001,-0.002 0.002,-0.005 0.003,-0.008c2.431,2.73 5.19,2.859 6.844,2.693c0.576,0.864 1.384,1.773 2.335,1.988c1.923,0.432 5.067,-0.531 7.342,-1.757c2.276,-1.227 5.554,-3.544 5.505,-5.538c-0.018,-0.747 -0.162,-1.523 -0.353,-2.211" style="fill:#263238;fill-rule:nonzero;"/><path d="M50.45,311.065c-2.5,0.537 -4.81,1.794 -6.555,3.663c-0.57,0.61 -1.114,1.313 -1.511,2.073c-1.335,2.564 -3.626,7.49 -0.692,13.513c2.934,6.024 7.264,5.863 9.229,5.59c1.965,-0.275 14.379,-7.465 14.379,-7.465c0,0 3.804,-5.353 0.711,-10.324c-2.654,-4.267 -8.33,-8.604 -15.561,-7.05" style="fill:#e8505b;fill-rule:nonzero;"/><path d="M49.539,334.234c0,0 1.343,3.277 3.267,3.711c1.923,0.433 5.066,-0.531 7.342,-1.757c2.276,-1.226 5.555,-3.544 5.505,-5.538c-0.049,-1.995 -0.996,-4.201 -1.334,-4.381c-0.339,-0.18 -4.581,-1.333 -9.179,1.446c-4.599,2.78 -5.601,6.519 -5.601,6.519" style="fill:#f5f5f5;fill-rule:nonzero;"/><g><g opacity="0.399994"><clipPath id="_clip2"><rect x="43.838" y="311.773" width="13.213" height="13.214" clip-rule="nonzero"/></clipPath><g clip-path="url(#_clip2)"><path d="M56.259,315.246c1.731,3.211 0.53,7.218 -2.681,8.948c-3.212,1.731 -7.218,0.531 -8.948,-2.68c-1.731,-3.212 -0.531,-7.218 2.681,-8.95c3.211,-1.73 7.218,-0.53 8.948,2.682" style="fill:#fff;fill-rule:nonzero;"/></g></g></g><g><g opacity="0.399994"><clipPath id="_clip3"><rect x="40.363" y="322.866" width="4.043" height="10.406" clip-rule="nonzero"/></clipPath><g clip-path="url(#_clip3)"><path d="M43.624,333.273c0.802,-1.814 1.055,-4.006 0.439,-5.891c-0.617,-1.884 -1.95,-3.526 -3.668,-4.515c0,0 -0.3,3.927 0.943,6.657c1.321,2.901 2.286,3.749 2.286,3.749" style="fill:#fff;fill-rule:nonzero;"/></g></g></g><g><g opacity="0.399994"><clipPath id="_clip4"><rect x="60.12" y="312.509" width="6.941" height="8.133" clip-rule="nonzero"/></clipPath><g clip-path="url(#_clip4)"><path d="M67.061,320.642c-1.956,-0.328 -3.926,-1.321 -5.161,-2.872c-1.235,-1.552 -1.885,-3.281 -1.766,-5.261c0,0 3.047,1.704 4.931,4.191c1.983,2.616 1.996,3.942 1.996,3.942" style="fill:#fff;fill-rule:nonzero;"/></g></g></g><path d="M49.562,334.188c0.045,0.265 0.094,0.539 0.24,0.764c0.147,0.225 0.421,0.392 0.682,0.33c0.282,-0.068 0.443,-0.355 0.578,-0.611c1.373,-2.599 3.509,-4.79 6.073,-6.227c1.041,-0.584 2.18,-1.052 3.374,-1.094c1.077,-0.038 2.136,0.274 3.213,0.328c0.274,0.014 0.56,0.008 0.805,-0.115c0.245,-0.124 0.23,-0.398 0.175,-0.667c-0.066,-0.321 -0.272,-0.581 -0.383,-0.627c-2.836,-1.171 -6.357,-0.311 -9.013,1.223c-2.657,1.534 -4.388,3.944 -5.744,6.696" style="fill:#e0e0e0;fill-rule:nonzero;"/><rect x="162.266" y="425.808" width="96.606" height="6.808" style="fill:#455a64;"/><path d="M151.712,432.616l-20.304,0l0,-1.666c0,-4.284 3.473,-7.758 7.757,-7.758l4.79,0c4.284,0 7.757,3.474 7.757,7.757l0,1.666Z" style="fill:#455a64;fill-rule:nonzero;"/><path d="M151.412,430.497c0,0.144 -4.382,0.261 -9.785,0.261c-5.406,0 -9.786,-0.117 -9.786,-0.261c0,-0.144 4.38,-0.26 9.786,-0.26c5.403,0 9.785,0.116 9.785,0.26" style="fill:#263238;fill-rule:nonzero;"/><path d="M141.782,423.115c0.144,-0.003 0.217,1.603 0.165,3.586c-0.054,1.983 -0.213,3.582 -0.357,3.572c-0.143,-0.01 -0.217,-1.615 -0.164,-3.587c0.053,-1.969 0.212,-3.569 0.356,-3.571" style="fill:#263238;fill-rule:nonzero;"/><rect x="17.707" y="432.615" width="464.587" height="13.52" style="fill:#263238;"/></g></svg>